<?xml version="1.0" encoding="UTF-8"?>
<svg version="1.1" xmlns="http://www.w3.org/2000/svg" width="500" height="500">
<path d="M0 0 C1.04220687 -0.00218016 1.04220687 -0.00218016 2.10546842 -0.00440437 C4.44529054 -0.00806813 6.78504766 -0.00457605 9.12486935 -0.0011425 C10.81516982 -0.00229423 12.50547003 -0.0038821 14.19576973 -0.00586975 C18.85082072 -0.01005727 23.5058513 -0.00797481 28.16090238 -0.00488353 C33.17927305 -0.00262678 38.19764013 -0.00611079 43.21601009 -0.00886345 C53.05980964 -0.01332018 62.90360158 -0.01234423 72.74740142 -0.00945081 C80.76378803 -0.00719243 88.7801725 -0.00688616 96.79655933 -0.00797462 C98.50825081 -0.00820447 98.50825081 -0.00820447 100.25452192 -0.00843897 C102.57311019 -0.00875871 104.89169846 -0.00908292 107.21028673 -0.00941156 C128.98582424 -0.01226708 150.76135755 -0.00898027 172.53689437 -0.00361119 C191.15679257 0.00083835 209.77668452 0.00009642 228.3965826 -0.00452995 C250.04614726 -0.00990662 271.6957082 -0.01197286 293.34527344 -0.00891769 C295.66481014 -0.00859918 297.98434685 -0.00828481 300.30388355 -0.00797462 C301.44488444 -0.00782035 302.58588532 -0.00766607 303.76146199 -0.00750712 C311.73756454 -0.00664981 319.71366471 -0.00808817 327.68976688 -0.01045418 C337.45662547 -0.01328765 347.22347605 -0.01244115 356.99033374 -0.00717343 C361.95863071 -0.00458067 366.92691442 -0.00345394 371.89521122 -0.00682259 C383.97215723 -0.01409679 396.04785725 0.02028473 408.12436581 0.12584114 C408.94605907 0.1322362 409.76775234 0.13863125 410.6143454 0.1452201 C415.46927624 0.18494427 420.32298371 0.24767447 425.17715054 0.34308328 C426.64948581 0.36969204 428.12194599 0.39028518 429.59445823 0.40395568 C443.13100533 0.54159465 455.82967005 2.64504227 466.12436581 12.12584114 C466.45436581 13.11584114 466.78436581 14.10584114 467.12436581 15.12584114 C468.04656918 15.58543221 468.04656918 15.58543221 468.98740292 16.05430794 C473.40731865 18.27057781 475.33523948 22.69631623 477.12436581 27.12584114 C478.06872605 32.37335344 478.13384811 37.5051983 478.06186581 42.81334114 C478.06071774 43.5578553 478.05956966 44.30236946 478.0583868 45.06944466 C477.96431116 62.25756465 474.07101354 78.46051298 469.69476986 94.99363899 C468.38989757 99.94972465 467.34299586 104.8992255 466.49643612 109.95640755 C466.03969239 112.61954716 465.39352691 115.2062807 464.68686581 117.81334114 C463.56070837 122.19037671 462.65865203 126.55013709 461.87436581 131.00084114 C460.44750044 139.0289742 458.56671706 146.94371707 456.68686581 154.87584114 C453.91537569 166.58264282 451.38392408 178.30972817 449.12436581 190.12584114 C446.40890091 204.1748507 446.40890091 204.1748507 444.62436581 211.06334114 C443.46958386 215.53960932 442.56582773 220.0131713 441.74936581 224.56334114 C437.08598796 250.34259462 431.288446 278.38822074 409.85092831 295.72349739 C408.10009101 297.09215171 408.10009101 297.09215171 406.58530331 298.69224739 C400.13130173 305.02545215 388.08984156 310.23256286 379.04805088 310.26285553 C377.83683361 310.27046734 377.83683361 310.27046734 376.60114729 310.27823293 C375.71964833 310.27873069 374.83814937 310.27922845 373.92993832 310.27974129 C372.98901439 310.28412354 372.04809047 310.2885058 371.07865369 310.29302084 C367.91761951 310.30640257 364.7566132 310.31258641 361.59555721 310.31871223 C359.33199596 310.32661392 357.06843596 310.33488291 354.80487728 310.34349251 C347.36190653 310.36971275 339.91893016 310.38502372 332.47592831 310.39927864 C329.91187569 310.40463899 327.34782311 310.4100165 324.78377056 310.415411 C314.11387786 310.43704289 303.44398801 310.4559285 292.77407932 310.46703339 C290.00623858 310.46996283 287.23839787 310.47292452 284.47055721 310.4759388 C283.78266894 310.47668485 283.09478066 310.4774309 282.38604729 310.47819956 C271.26032247 310.49083395 260.13475817 310.52403195 249.00910826 310.56574063 C237.57091668 310.60826708 226.13284658 310.63133403 214.69456899 310.63695395 C208.27885663 310.64060069 201.86341618 310.65254989 195.44777966 310.68505669 C189.40500612 310.71523428 183.36266762 310.72141433 177.31983471 310.70967293 C175.11004161 310.70945298 172.90022777 310.71769199 170.69050503 310.73532677 C152.66972589 310.87123361 138.41598043 308.70140215 124.72202206 295.87584114 C110.51958318 281.12988131 108.28144415 261.75380185 105.43051815 242.25792122 C103.85738346 231.81088653 101.70013457 221.46249548 99.63657284 211.10362434 C98.10137244 203.36494837 96.69394451 195.64141492 95.5425787 187.83384895 C95.04053037 184.58299077 94.36773247 181.39208987 93.62436581 178.18834114 C92.5826364 173.49014151 91.75897337 168.83347469 91.12436581 164.06334114 C90.51448144 159.50445553 89.70796766 155.09569877 88.62436581 150.62584114 C87.25904866 144.9939079 86.4183221 139.38936929 85.65170956 133.64927864 C84.95073992 128.96576302 83.92364189 124.38000566 82.89780331 119.75865364 C82.11439849 116.07902497 81.44854697 112.39607259 80.81186581 108.68834114 C79.46130536 100.86654078 78.00976204 93.06432217 76.52051449 85.26790047 C76.25963148 83.89841039 76.00061109 82.52856397 75.74359798 81.15834236 C73.33239407 64.48457355 73.33239407 64.48457355 64.12436581 51.12584114 C56.5173853 46.80374088 49.05527511 46.55125818 40.48764706 46.58677864 C38.56942387 46.56908928 38.56942387 46.56908928 36.61244869 46.55104256 C33.23992278 46.5218744 29.86817386 46.50831222 26.49558163 46.50419807 C21.73997431 46.4964436 16.98459755 46.46797855 12.22914791 46.42921638 C9.7049665 46.40967202 7.18068076 46.40024216 4.65642452 46.40229988 C-10.46035542 46.3106987 -10.46035542 46.3106987 -16.45375919 40.70396614 C-22.10794343 34.42844298 -23.63267134 28.37911405 -23.53969669 20.01817513 C-23.19364384 13.71240594 -21.32621415 9.53596127 -16.87563419 5.12584114 C-11.59267737 0.51620234 -6.83053522 0.00089419 0 0 Z M255.99936581 54.14146614 C237.00399891 54.76867165 218.39529457 61.92566799 202.99155331 72.86412239 C201.10113637 74.14153802 199.18448887 75.15071622 197.12436581 76.12584114 C197.12436581 76.78584114 197.12436581 77.44584114 197.12436581 78.12584114 C196.45792049 78.30373177 195.79147518 78.48162239 195.10483456 78.66490364 C190.74709703 80.8009375 187.80222857 84.05387404 184.43686581 87.50084114 C183.76075253 88.17373177 183.08463924 88.84662239 182.38803768 89.53990364 C178.81426468 93.02653469 178.81426468 93.02653469 176.10556698 97.1634388 C175.04297031 99.28863213 173.81726998 100.48027951 172.12436581 102.12584114 C171.31680833 103.30825242 170.5498824 104.51915633 169.81967831 105.75084114 C169.40347225 106.45152718 168.9872662 107.15221321 168.55844784 107.87413216 C161.2554869 120.43571529 156.34291395 131.97369562 153.12436581 146.12584114 C152.86067196 146.9902784 152.86067196 146.9902784 152.59165096 147.87217903 C151.91645254 151.12858269 151.90158423 154.37561933 151.85092831 157.68834114 C151.83840023 158.42809685 151.82587215 159.16785255 151.81296444 159.9300251 C151.50697566 182.34824636 151.84915992 206.02554342 167.12436581 224.12584114 C167.12323788 223.42837776 167.12210995 222.73091438 167.12094784 222.01231575 C167.21034371 198.25827828 170.64563508 175.72620388 183.12436581 155.12584114 C183.82259198 153.47214757 184.49935186 151.808571 185.12436581 150.12584114 C185.78436581 150.12584114 186.44436581 150.12584114 187.12436581 150.12584114 C187.67737362 149.10232552 188.23038143 148.07880989 188.80014706 147.02427864 C190.95637541 143.25727101 193.47427027 140.02329419 196.31186581 136.75084114 C196.79526424 136.18848763 197.27866268 135.62613411 197.77670956 135.04673958 C206.69002386 124.77883606 216.5470326 115.36167439 228.12436581 108.12584114 C228.94549862 107.59345833 229.76663143 107.06107552 230.61264706 106.51255989 C233.43395125 104.69022371 236.27264454 102.90015648 239.12436581 101.12584114 C239.85655331 100.66822395 240.58874081 100.21060677 241.34311581 99.73912239 C264.28456789 86.17113673 295.4175807 82.99697139 321.06479549 89.13511848 C327.49588277 90.93576194 333.25747209 93.9392508 338.98764706 97.32115364 C341.66828912 98.86344086 344.22579022 100.07082489 347.12436581 101.12584114 C347.12436581 101.78584114 347.12436581 102.44584114 347.12436581 103.12584114 C348.61073339 104.48644204 348.61073339 104.48644204 350.49936581 105.75084114 C351.12585018 106.19685677 351.75233456 106.64287239 352.39780331 107.10240364 C354.07659224 108.29581083 354.07659224 108.29581083 356.12436581 108.12584114 C351.00427967 94.37979708 342.47548452 85.02180216 331.12436581 76.12584114 C330.37155331 75.53029427 329.61874081 74.93474739 328.84311581 74.32115364 C325.07812502 71.41052615 321.41258958 69.22749537 317.12436581 67.12584114 C315.64903378 66.30986458 315.64903378 66.30986458 314.14389706 65.47740364 C300.77945997 58.28242046 286.34099024 54.38612551 271.12436581 54.12584114 C270.14467831 54.09877083 269.16499081 54.07170052 268.15561581 54.04380989 C264.10104545 53.98512532 260.05368851 54.12119453 255.99936581 54.14146614 Z M347.12436581 135.12584114 C344.20225715 139.05727719 343.76403434 141.8392732 343.87436581 146.68834114 C343.89756893 147.92068489 343.92077206 149.15302864 343.94467831 150.42271614 C344.10769641 153.78230667 344.39780453 157.09422171 344.74936581 160.43834114 C345.48671816 168.46372689 344.31067399 174.75409109 339.12436581 181.12584114 C334.79432523 185.3388536 330.53102642 187.12584114 324.44077206 187.12584114 C316.40214516 186.60229421 311.18737965 184.44394592 305.24936581 178.87584114 C304.38827206 178.07920052 303.52717831 177.28255989 302.63999081 176.46177864 C301.80983456 175.69091927 300.97967831 174.92005989 300.12436581 174.12584114 C298.1130863 172.34211516 296.08689299 170.5769211 294.05795956 168.81334114 C292.73049112 167.65482323 291.4105354 166.4876575 290.09702206 165.31334114 C275.84191099 152.61781036 259.7729125 144.93180473 240.30795956 145.74302864 C225.40485249 146.83375086 214.37726656 153.95204777 203.12436581 163.12584114 C202.49917049 163.61568489 201.87397518 164.10552864 201.22983456 164.61021614 C199.82038543 165.73249414 198.46525306 166.92248079 197.12436581 168.12584114 C197.12436581 168.78584114 197.12436581 169.44584114 197.12436581 170.12584114 C196.46436581 170.12584114 195.80436581 170.12584114 195.12436581 170.12584114 C189.61480661 176.52299141 184.85022692 183.55038183 181.12436581 191.12584114 C180.74409237 191.88767708 180.36381893 192.64951302 179.97202206 193.43443489 C176.38952552 200.99464999 175.94346664 208.23659201 175.93686581 216.50084114 C175.92461971 217.30005989 175.91237362 218.09927864 175.89975643 218.92271614 C175.86962954 231.33499665 179.59781648 240.99025258 188.12436581 250.12584114 C192.05673067 254.35794891 192.05673067 254.35794891 197.12436581 256.12584114 C197.45436581 257.11584114 197.78436581 258.10584114 198.12436581 259.12584114 C199.73938757 260.47082851 199.73938757 260.47082851 201.77280331 261.64927864 C202.52513241 262.11060188 203.27746151 262.57192513 204.05258846 263.04722786 C204.86002499 263.52692024 205.66746151 264.00661263 206.49936581 264.50084114 C207.73565731 265.24164925 207.73565731 265.24164925 208.9969244 265.99742317 C233.43891209 280.46681113 262.02970867 286.29531954 290.12436581 280.12584114 C297.836152 277.98111394 305.29575602 275.33777357 312.12436581 271.12584114 C312.94678768 270.7971302 313.76920956 270.46841927 314.61655331 270.12974739 C323.84827243 266.43418382 331.64240051 259.4997902 339.12436581 253.12584114 C340.18977596 252.26345833 340.18977596 252.26345833 341.27670956 251.38365364 C350.41235638 243.82187073 357.05841063 234.21984529 363.12436581 224.12584114 C363.82561581 223.01209114 364.52686581 221.89834114 365.24936581 220.75084114 C376.56516853 200.15899412 378.29925876 174.46357464 372.32749081 151.97349739 C370.28235655 145.05524406 367.06782558 138.44835734 361.12436581 134.12584114 C356.2961306 132.79543327 351.47179308 132.31279997 347.12436581 135.12584114 Z " fill="#DE322B" transform="translate(22.87563419342041,69.87415885925293)"/>
<path d="M0 0 C7.61097181 5.58930743 12.09658789 12.7944069 14 22 C15.09056835 32.20460385 12.96163754 42.31426103 6.5625 50.5625 C-1.67128515 58.39463709 -10.66775972 61.35564738 -21.7734375 61.20703125 C-32.34402044 60.52877351 -39.58152224 56.70916863 -46.8203125 49.08203125 C-52.93706962 41.67986864 -53.48060991 33.64476485 -53.31640625 24.28515625 C-52.46253267 15.41962928 -49.05867792 8.62352283 -42.546875 2.671875 C-29.86711462 -7.54579598 -13.95558895 -7.06007979 0 0 Z " fill="#DE312B" transform="translate(406,401)"/>
<path d="M0 0 C1.51953125 1.17578125 1.51953125 1.17578125 3.95703125 3.80078125 C4.40304688 4.26742188 4.8490625 4.7340625 5.30859375 5.21484375 C11.03187402 12.00914723 12.34645625 21.42011607 11.89453125 30.05078125 C10.72496123 39.40734139 6.84516682 46.38865504 -0.04296875 52.80078125 C-8.60180347 59.43893259 -17.40253468 60.64446064 -28.04296875 59.80078125 C-32.88634231 58.80907332 -36.92026823 57.54924826 -41.04296875 54.80078125 C-41.04296875 54.14078125 -41.04296875 53.48078125 -41.04296875 52.80078125 C-41.64109375 52.69636719 -42.23921875 52.59195313 -42.85546875 52.484375 C-47.48229304 51.03849241 -50.07181916 46.60522008 -52.28125 42.5 C-56.70296628 32.41848688 -57.0390663 23.07880993 -53.04296875 12.80078125 C-50.62091582 8.44108598 -47.69235405 5.18313836 -44.04296875 1.80078125 C-43.34171875 1.12015625 -42.64046875 0.43953125 -41.91796875 -0.26171875 C-28.68911968 -9.17681269 -13.48591768 -7.91620789 0 0 Z " fill="#DD312B" transform="translate(231.04296875,402.19921875)"/>
<path d="M0 0 C7.81814772 -0.00129061 15.63629168 -0.00505071 23.45443803 -0.00973773 C33.99569363 -0.01582205 44.53693632 -0.01586991 55.07819253 -0.01148868 C58.97344066 -0.01001324 62.86867885 -0.01071833 66.76392633 -0.01332736 C71.24517285 -0.01617806 75.72639115 -0.01431301 80.20763463 -0.00853896 C81.83816333 -0.0072337 83.46869439 -0.00763717 85.09922212 -0.00984168 C87.30227606 -0.01254545 89.50523548 -0.00918102 91.70828325 -0.00415301 C92.93717208 -0.00377599 94.16606092 -0.00339896 95.43218881 -0.00301051 C98.15191728 0.12283063 98.15191728 0.12283063 99.15191728 1.12283063 C100.71640111 1.24546451 102.286245 1.30062585 103.85528642 1.32815289 C105.35672952 1.35807073 105.35672952 1.35807073 106.8885048 1.38859296 C108.52129632 1.4136617 108.52129632 1.4136617 110.18707353 1.43923688 C111.29546083 1.46001798 112.40384813 1.48079907 113.54582292 1.5022099 C117.10195536 1.56782686 120.65816431 1.62664659 124.21441728 1.68533063 C126.61872221 1.72850431 129.02301927 1.77211821 131.4273079 1.81619 C137.33542913 1.92352055 143.24362719 2.02526394 149.15191728 2.12283063 C149.15191728 2.78283063 149.15191728 3.44283063 149.15191728 4.12283063 C-75.57808272 4.61783063 -75.57808272 4.61783063 -304.84808272 5.12283063 C-304.51808272 4.46283063 -304.18808272 3.80283063 -303.84808272 3.12283063 C-297.24808272 3.12283063 -290.64808272 3.12283063 -283.84808272 3.12283063 C-283.84808272 2.46283063 -283.84808272 1.80283063 -283.84808272 1.12283063 C-189.2324153 0.48096377 -94.61805818 0.01458082 0 0 Z " fill="#CD2725" transform="translate(315.84808272123337,69.87716937065125)"/>
<path d="M0 0 C-1.28368692 2.56737385 -2.37512962 2.93082776 -5 4 C-8.01391434 4.18660036 -10.93371814 4.26101555 -13.94696045 4.24050903 C-15.31803526 4.24307231 -15.31803526 4.24307231 -16.71680856 4.24568737 C-19.78621981 4.24898726 -22.8554135 4.23797026 -25.92480469 4.22705078 C-28.12241104 4.22648678 -30.32001777 4.22680302 -32.5176239 4.22793579 C-38.49036992 4.22851072 -44.46303596 4.2167337 -50.43576336 4.20278788 C-56.67512802 4.19030388 -62.91449441 4.18911186 -69.15386963 4.18673706 C-79.62847182 4.18122276 -90.10304922 4.1687217 -100.57763672 4.15087891 C-111.3663722 4.1325201 -122.15509971 4.1183636 -132.94384766 4.10986328 C-133.60889678 4.10933783 -134.2739459 4.10881239 -134.95914802 4.10827102 C-138.29551332 4.10566094 -141.63187868 4.10313803 -144.96824408 4.10064721 C-172.64551653 4.07972975 -200.3227562 4.0445405 -228 4 C-228.33 3.01 -228.66 2.02 -229 1 C-227.7843486 1.00222061 -226.5686972 1.00444122 -225.31620789 1.00672913 C-209.43997999 1.03471787 -193.56374885 1.05201291 -177.6875 1.0625 C-175.75692371 1.06378403 -175.75692371 1.06378403 -173.78734589 1.06509399 C-122.53135346 1.09512827 -71.28369003 0.73324913 -20.03074646 0.15245056 C-19.11976102 0.14218558 -18.20877558 0.1319206 -17.27018452 0.12134457 C-15.59596043 0.10237321 -13.92173966 0.08310483 -12.24752331 0.06346226 C-8.16473679 0.017079 -4.08314379 -0.00952833 0 0 Z " fill="#C92723" transform="translate(407,376)"/>
<path d="M0 0 C2.0625 0.4375 2.0625 0.4375 4 1 C3.28972656 1.55429688 2.57945312 2.10859375 1.84765625 2.6796875 C0.92855469 3.40414062 0.00945312 4.12859375 -0.9375 4.875 C-1.85402344 5.59429687 -2.77054688 6.31359375 -3.71484375 7.0546875 C-6.06009485 8.79420836 -6.06009485 8.79420836 -7 11 C-7.66 11 -8.32 11 -9 11 C-9.40798828 11.87591797 -9.40798828 11.87591797 -9.82421875 12.76953125 C-10.98245988 14.96672622 -12.27005362 16.74621524 -13.8125 18.6875 C-22.91838816 30.65144065 -27.17552917 42.38751601 -27.1875 57.375 C-27.19974609 58.17421875 -27.21199219 58.9734375 -27.22460938 59.796875 C-27.25300988 71.49788152 -23.97915616 81.24866744 -16 90 C-15.2575 90.556875 -14.515 91.11375 -13.75 91.6875 C-13.1725 92.120625 -12.595 92.55375 -12 93 C-12 93.66 -12 94.32 -12 95 C-13.98 94.67 -15.96 94.34 -18 94 C-18 93.01 -18 92.02 -18 91 C-18.89138672 90.66935547 -18.89138672 90.66935547 -19.80078125 90.33203125 C-22.70533532 88.57278979 -23.61423314 86.6763026 -25.1875 83.6875 C-25.69667969 82.74261719 -26.20585937 81.79773438 -26.73046875 80.82421875 C-27.92186863 78.17381224 -28.56738785 75.86149483 -29 73 C-29.33 73 -29.66 73 -30 73 C-30.495 62.605 -30.495 62.605 -31 52 C-31.66 54.31 -32.32 56.62 -33 59 C-33.33 59 -33.66 59 -34 59 C-34 54.38 -34 49.76 -34 45 C-34.66 45 -35.32 45 -36 45 C-36 51.93 -36 58.86 -36 66 C-36.66 65.67 -37.32 65.34 -38 65 C-37.67 56.09 -37.34 47.18 -37 38 C-36.67 38 -36.34 38 -36 38 C-36 39.98 -36 41.96 -36 44 C-35.01 44 -34.02 44 -33 44 C-33.061875 42.081875 -33.061875 42.081875 -33.125 40.125 C-33.14157783 34.91127144 -32.18311358 30.05992328 -31 25 C-27.846632 24.29925156 -25.27275026 24 -22 24 C-20.30344828 22.21036291 -20.30344828 22.21036291 -19 20 C-18.34 19.01 -17.68 18.02 -17 17 C-16.34 17 -15.68 17 -15 17 C-15 16.01 -15 15.02 -15 14 C-14.34 14 -13.68 14 -13 14 C-13 13.01 -13 12.02 -13 11 C-12.01 11 -11.02 11 -10 11 C-10 10.01 -10 9.02 -10 8 C-9.34 8 -8.68 8 -8 8 C-7.67 7.01 -7.34 6.02 -7 5 C-5.35 4.67 -3.7 4.34 -2 4 C-1.67 3.01 -1.34 2.02 -1 1 C-0.67 0.67 -0.34 0.34 0 0 Z " fill="#DC302B" transform="translate(227,229)"/>
<path d="M0 0 C1.91396076 0.00028292 3.82792163 0.00012209 5.74188232 -0.0004425 C10.87702604 -0.00072637 16.01214582 0.00510327 21.14728403 0.01213145 C26.53641033 0.01843402 31.92553733 0.0189742 37.31466675 0.02015686 C47.49262152 0.02324999 57.67056539 0.03143587 67.84851539 0.04150635 C79.44725963 0.05273055 91.04600442 0.05819375 102.64475274 0.06320179 C126.47915758 0.07362042 150.31355279 0.09118032 174.14794922 0.11352539 C174.47794922 0.77352539 174.80794922 1.43352539 175.14794922 2.11352539 C134.22794922 2.11352539 93.30794922 2.11352539 51.14794922 2.11352539 C51.14794922 2.44352539 51.14794922 2.77352539 51.14794922 3.11352539 C20.45794922 3.11352539 -10.23205078 3.11352539 -41.85205078 3.11352539 C-37.63467325 1.00483663 -34.42648719 0.68182729 -29.84280396 0.49562073 C-29.04891679 0.45797814 -28.25502962 0.42033555 -27.43708527 0.38155228 C-18.29314372 -0.01461698 -9.15068179 -0.01928259 0 0 Z " fill="#D27C73" transform="translate(234.85205078125,69.886474609375)"/>
<path d="M0 0 C1.33548909 0.32458865 2.66837312 0.65991363 4 1 C5.67899911 1.11165402 7.36150062 1.17558208 9.04394531 1.20532227 C10.04468079 1.22526749 11.04541626 1.24521271 12.07647705 1.26576233 C13.14952087 1.28247482 14.2225647 1.29918732 15.328125 1.31640625 C16.43226746 1.33718735 17.53640991 1.35796844 18.67401123 1.37937927 C22.19927783 1.44473646 25.72461859 1.50369564 29.25 1.5625 C31.64063265 1.60569836 34.03125782 1.64931307 36.421875 1.69335938 C42.28117173 1.80040372 48.14054214 1.90219585 54 2 C54 2.33 54 2.66 54 3 C-5.07 3 -64.14 3 -125 3 C-125.33 2.34 -125.66 1.68 -126 1 C-125.35670526 1.00092179 -124.71341051 1.00184359 -124.05062199 1.00279331 C-108.4197113 1.02484855 -92.78880601 1.04141155 -77.15788364 1.05181217 C-69.59898381 1.05697512 -62.04009435 1.0640178 -54.48120117 1.07543945 C-47.89520334 1.08538632 -41.30921302 1.09185343 -34.72320789 1.09408849 C-31.23386929 1.0953956 -27.74455216 1.09848142 -24.25522041 1.10573006 C-20.36618768 1.11374398 -16.47717622 1.11399114 -12.58813477 1.11352539 C-10.84026421 1.1189183 -10.84026421 1.1189183 -9.05708313 1.12442017 C-8.00393921 1.1230455 -6.95079529 1.12167084 -5.86573792 1.12025452 C-4.94486672 1.12117631 -4.02399553 1.1220981 -3.07521915 1.12304783 C-1.00970745 1.23104526 -1.00970745 1.23104526 0 0 Z " fill="#C02928" transform="translate(411,70)"/>
<path d="M0 0 C0.33 0 0.66 0 1 0 C1 1.98 1 3.96 1 6 C2.98 5.34 4.96 4.68 7 4 C7 5.98 7 7.96 7 10 C7.66 8.02 8.32 6.04 9 4 C9.33 4 9.66 4 10 4 C9.98428955 5.06528931 9.98428955 5.06528931 9.96826172 6.15209961 C9.92632514 9.41386279 9.90055514 12.67556896 9.875 15.9375 C9.85824219 17.05447266 9.84148437 18.17144531 9.82421875 19.32226562 C9.74901493 32.14451644 12.15446129 42.29844142 21 52 C21.7425 52.556875 22.485 53.11375 23.25 53.6875 C23.8275 54.120625 24.405 54.55375 25 55 C25 55.66 25 56.32 25 57 C23.02 56.67 21.04 56.34 19 56 C19 55.01 19 54.02 19 53 C18.10861328 52.66935547 18.10861328 52.66935547 17.19921875 52.33203125 C14.29466468 50.57278979 13.38576686 48.6763026 11.8125 45.6875 C11.30332031 44.74261719 10.79414063 43.79773438 10.26953125 42.82421875 C9.07813137 40.17381224 8.43261215 37.86149483 8 35 C7.67 35 7.34 35 7 35 C6.67 28.07 6.34 21.14 6 14 C5.34 16.31 4.68 18.62 4 21 C3.67 21 3.34 21 3 21 C3 16.38 3 11.76 3 7 C2.34 7 1.68 7 1 7 C1 13.93 1 20.86 1 28 C0.34 27.67 -0.32 27.34 -1 27 C-0.67 18.09 -0.34 9.18 0 0 Z " fill="#DA514E" transform="translate(190,267)"/>
<path d="M0 0 C0.99 0 1.98 0 3 0 C3 0.66 3 1.32 3 2 C4.175625 2.185625 4.175625 2.185625 5.375 2.375 C8 3 8 3 10 5 C12.63715096 6.31857548 14.5983264 6.11991704 17.55126953 6.11352539 C18.71232208 6.11344986 19.87337463 6.11337433 21.0696106 6.11329651 C22.95714554 6.10555458 22.95714554 6.10555458 24.8828125 6.09765625 C26.16735321 6.0962413 27.45189392 6.09482635 28.77536011 6.09336853 C32.19156842 6.08954911 35.60773426 6.07972373 39.02392578 6.06866455 C42.50943426 6.05843807 45.9949496 6.05386826 49.48046875 6.04882812 C56.32032995 6.03810096 63.16016294 6.02103142 70 6 C70 6.99 70 7.98 70 9 C62.42828215 9.04647197 54.85657921 9.08194443 47.28475094 9.10362434 C43.76831438 9.114033 40.25197586 9.12813839 36.7355957 9.15087891 C32.68700249 9.17689549 28.63851124 9.1864969 24.58984375 9.1953125 C22.70820778 9.21079636 22.70820778 9.21079636 20.78855896 9.22659302 C6.80344872 9.22838232 6.80344872 9.22838232 1.5625 5.0625 C0 3 0 3 0 0 Z " fill="#C53C3A" transform="translate(7,107)"/>
<path d="M0 0 C1.39025391 0.02707031 1.39025391 0.02707031 2.80859375 0.0546875 C5.08181435 0.10155803 7.35285407 0.16714475 9.625 0.25 C9.625 0.91 9.625 1.57 9.625 2.25 C-0.275 2.745 -0.275 2.745 -10.375 3.25 C-10.705 4.24 -11.035 5.23 -11.375 6.25 C-12.220625 6.848125 -13.06625 7.44625 -13.9375 8.0625 C-16.73063065 10.05361797 -16.73063065 10.05361797 -16.5625 13.375 C-16.500625 14.32375 -16.43875 15.2725 -16.375 16.25 C-17.035 16.91 -17.695 17.57 -18.375 18.25 C-18.65603071 20.32354839 -18.65603071 20.32354839 -18.5625 22.625 C-18.55605469 23.39585938 -18.54960937 24.16671875 -18.54296875 24.9609375 C-18.38095151 27.16889344 -17.98134894 29.12535332 -17.375 31.25 C-18.035 31.25 -18.695 31.25 -19.375 31.25 C-19.375 30.59 -19.375 29.93 -19.375 29.25 C-20.365 29.25 -21.355 29.25 -22.375 29.25 C-23.45799758 12.90475871 -23.45799758 12.90475871 -18.2734375 6.046875 C-12.25969154 0.35485208 -7.9805439 -0.29599735 0 0 Z " fill="#D32627" transform="translate(22.375,70.75)"/>
<path d="M0 0 C1.37821426 0.01089157 1.37821426 0.01089157 2.78427124 0.02200317 C3.77794708 0.04165131 4.77162292 0.06129944 5.79541016 0.08154297 C7.34091049 0.10485184 7.34091049 0.10485184 8.91763306 0.12863159 C11.10501695 0.16548474 13.29231326 0.2078865 15.47949219 0.25537109 C18.78666946 0.32275646 22.09321816 0.35941814 25.40087891 0.39404297 C40.62680705 0.63995967 54.62958259 1.30410949 66.45947266 12.19873047 C66.95447266 13.68373047 66.95447266 13.68373047 67.45947266 15.19873047 C68.44947266 15.69373047 68.44947266 15.69373047 69.45947266 16.19873047 C70.11947266 16.52873047 70.77947266 16.85873047 71.45947266 17.19873047 C71.95447266 18.68373047 71.95447266 18.68373047 72.45947266 20.19873047 C71.79947266 20.52873047 71.13947266 20.85873047 70.45947266 21.19873047 C70.45947266 20.53873047 70.45947266 19.87873047 70.45947266 19.19873047 C69.59322266 19.10591797 69.59322266 19.10591797 68.70947266 19.01123047 C66.45947266 18.19873047 66.45947266 18.19873047 64.89697266 16.01123047 C61.21768091 11.76589384 56.43118306 9.69315759 51.45947266 7.19873047 C51.45947266 6.53873047 51.45947266 5.87873047 51.45947266 5.19873047 C49.80947266 5.19873047 48.15947266 5.19873047 46.45947266 5.19873047 C46.45947266 4.53873047 46.45947266 3.87873047 46.45947266 3.19873047 C45.13947266 3.52873047 43.81947266 3.85873047 42.45947266 4.19873047 C42.45947266 3.53873047 42.45947266 2.87873047 42.45947266 2.19873047 C25.95947266 2.19873047 9.45947266 2.19873047 -7.54052734 2.19873047 C-4.35687761 0.07629732 -3.63452588 -0.04568278 0 0 Z " fill="#D16867" transform="translate(422.54052734375,69.80126953125)"/>
<path d="M0 0 C2.41015625 2.67578125 2.41015625 2.67578125 4 5 C3.01 5 2.02 5 1 5 C1 4.34 1 3.68 1 3 C-0.65 3 -2.3 3 -4 3 C-4 2.01 -4 1.02 -4 0 C-5.65 0 -7.3 0 -9 0 C-9 -0.66 -9 -1.32 -9 -2 C-12.06273831 -2.05410136 -15.12451452 -2.09372225 -18.1875 -2.125 C-19.05181641 -2.14175781 -19.91613281 -2.15851563 -20.80664062 -2.17578125 C-25.29110132 -2.21014493 -28.96983211 -2.22761233 -33 0 C-33.8971875 0.8971875 -33.8971875 0.8971875 -34.8125 1.8125 C-37.38887445 4.38887445 -40.15846672 6.02552607 -43.29296875 7.8515625 C-45.15586422 8.90133104 -45.15586422 8.90133104 -46 11 C-46.66 11 -47.32 11 -48 11 C-48.33 12.65 -48.66 14.3 -49 16 C-49.66 16 -50.32 16 -51 16 C-49.15497807 8.95537081 -45.08724401 4.1564987 -39.13671875 0.16796875 C-26.09211763 -6.96244393 -13.18325122 -6.80154999 0 0 Z " fill="#CE5F5D" transform="translate(406,401)"/>
<path d="M0 0 C6.77428801 2.32261303 11.72968486 6.59376624 15 13 C17.97271851 21.55228248 19.79904073 31.76719184 15.94921875 40.33984375 C15.63597656 40.88769531 15.32273438 41.43554688 15 42 C14.01 42 13.02 42 12 42 C12.24363281 40.72769531 12.24363281 40.72769531 12.4921875 39.4296875 C13.73370897 31.04464247 13.33669928 22.35437052 12 14 C11.01 13.67 10.02 13.34 9 13 C8.67 11.02 8.34 9.04 8 7 C7.34 7 6.68 7 6 7 C5.67 6.34 5.34 5.68 5 5 C2.47266765 4.34444881 2.47266765 4.34444881 0 4 C0 2.68 0 1.36 0 0 Z " fill="#CB3637" transform="translate(225,400)"/>
<path d="M0 0 C3.84160316 5.76240474 4.23538321 11.29157865 4 18 C4.66 18 5.32 18 6 18 C6.12117188 19.19496094 6.24234375 20.38992187 6.3671875 21.62109375 C7.17435967 35.43952792 7.17435967 35.43952792 12 48 C12.82375082 51.59454905 13.17790906 53.46627283 12 57 C11.9314505 58.89470816 11.91519628 60.7916834 11.9375 62.6875 C11.94652344 63.68136719 11.95554687 64.67523438 11.96484375 65.69921875 C11.97644531 66.45847656 11.98804687 67.21773438 12 68 C11.67 68 11.34 68 11 68 C10.89042969 67.22398437 10.78085938 66.44796875 10.66796875 65.6484375 C9.79987926 59.73413674 8.80185996 53.89774035 7.5 48.0625 C6.20210821 42.20900803 5.32325606 36.37414439 4.53515625 30.43359375 C4.00890089 27.05710861 3.26881647 23.81321783 2.4375 20.5 C0.77908482 13.70719841 0.30306065 6.97039505 0 0 Z " fill="#CD5250" transform="translate(109,200)"/>
<path d="M0 0 C0.66 0.33 1.32 0.66 2 1 C1.9375 2.75 1.9375 2.75 1 5 C-8.00343047 11.12233272 -17.93091361 12.39703585 -28.6171875 10.546875 C-30.42871508 10.09560479 -32.2187138 9.55883489 -34 9 C-33.67 7.68 -33.34 6.36 -33 5 C-32.24976563 5.144375 -31.49953125 5.28875 -30.7265625 5.4375 C-17.30199925 8.02118357 -17.30199925 8.02118357 -4.69140625 3.97265625 C-3 3 -3 3 0 2 C0 1.34 0 0.68 0 0 Z " fill="#CF3938" transform="translate(229,451)"/>
<path d="M0 0 C5.67880854 3.62812768 7.68459609 8.69662563 9.58984375 14.9296875 C11.31767989 23.65114612 9.89870344 31.13297342 6 39 C5.67 39 5.34 39 5 39 C5 35.7 5 32.4 5 29 C5.33 29 5.66 29 6 29 C6 23.72 6 18.44 6 13 C5.34 13 4.68 13 4 13 C3.66376204 11.7090864 3.33110751 10.41723903 3 9.125 C2.814375 8.40570313 2.62875 7.68640625 2.4375 6.9453125 C2 5 2 5 2 3 C1.01 2.67 0.02 2.34 -1 2 C-0.67 1.34 -0.34 0.68 0 0 Z " fill="#D15150" transform="translate(410,406)"/>
<path d="M0 0 C0.66 0 1.32 0 2 0 C2.33 3.63 2.66 7.26 3 11 C3.66 9.35 4.32 7.7 5 6 C5.33 6 5.66 6 6 6 C6 11.61 6 17.22 6 23 C5.67 22.34 5.34 21.68 5 21 C3.576875 21.99 3.576875 21.99 2.125 23 C-1 25 -1 25 -3 25 C-3.33 23.02 -3.66 21.04 -4 19 C-2.02 19.99 -2.02 19.99 0 21 C0 14.07 0 7.14 0 0 Z " fill="#D62425" transform="translate(191,274)"/>
<path d="M0 0 C0.99 0 1.98 0 3 0 C2.57362759 4.51954754 1.87142092 8.54666178 0.5 12.875 C-1.42045307 19.77650186 -1.55817915 26.56007394 -1.6875 33.6875 C-1.73874023 35.61625977 -1.73874023 35.61625977 -1.79101562 37.58398438 C-1.87268883 40.72256889 -1.94209959 43.86090231 -2 47 C-2.66 47 -3.32 47 -4 47 C-4.07497625 42.76826361 -4.12898541 38.53689412 -4.16479492 34.3046875 C-4.17974586 32.8693975 -4.20011424 31.43415209 -4.22631836 29.99902344 C-4.37769281 21.48643667 -3.93692104 14.09053726 -1 6 C-0.62219222 4.00792259 -0.26450794 2.01026035 0 0 Z " fill="#D05B58" transform="translate(177,201)"/>
<path d="M0 0 C0.33 0 0.66 0 1 0 C1.39767064 4.14398054 1.76397582 8.29017899 2.125 12.4375 C2.23714844 13.60216797 2.34929687 14.76683594 2.46484375 15.96679688 C3.26699798 25.45895524 3.23766037 33.33658869 -3 41 C-5.75 43.375 -5.75 43.375 -8 45 C-8 43.68 -8 42.36 -8 41 C-7.01 41 -6.02 41 -5 41 C-5 40.01 -5 39.02 -5 38 C-4.34 38 -3.68 38 -3 38 C-2.02484888 29.99673272 -1.47266522 21.98083505 -0.9375 13.9375 C-0.84588043 12.58136822 -0.75408488 11.22524831 -0.66210938 9.86914062 C-0.43968082 6.57953934 -0.2190244 3.28982939 0 0 Z " fill="#CF514E" transform="translate(366,210)"/>
<path d="M0 0 C0.33 0 0.66 0 1 0 C1.23074219 1.05058594 1.46148437 2.10117187 1.69921875 3.18359375 C4.13769419 13.84557362 7.03260558 24.77445419 16.25 31.6875 C16.8275 32.120625 17.405 32.55375 18 33 C18 33.66 18 34.32 18 35 C16.02 34.67 14.04 34.34 12 34 C12 33.01 12 32.02 12 31 C11.40574219 30.77957031 10.81148437 30.55914062 10.19921875 30.33203125 C7.29466468 28.57278979 6.38576686 26.6763026 4.8125 23.6875 C4.30332031 22.74261719 3.79414063 21.79773438 3.26953125 20.82421875 C2.07813137 18.17381224 1.43261215 15.86149483 1 13 C0.67 13 0.34 13 0 13 C0 8.71 0 4.42 0 0 Z " fill="#CD3D3D" transform="translate(197,289)"/>
<path d="M0 0 C0.99 0 1.98 0 3 0 C2.40347414 5.28424621 1.56073467 10.37133962 0.37109375 15.5625 C0.21713638 16.23925781 0.06317902 16.91601562 -0.09544373 17.61328125 C-0.58081739 19.74304019 -1.07155369 21.87151955 -1.5625 24 C-1.89554018 25.45694949 -2.22822558 26.91398012 -2.56054688 28.37109375 C-3.36960584 31.91500826 -4.18347397 35.4577975 -5 39 C-5.33 39 -5.66 39 -6 39 C-6.45065973 29.88665876 -5.15287287 21.83453687 -3 13 C-2.43571934 10.54207478 -1.87312945 8.08376059 -1.3125 5.625 C-0.87613194 3.74973624 -0.4390749 1.87463183 0 0 Z " fill="#D03937" transform="translate(497,128)"/>
<path d="M0 0 C15.85757227 -0.44058226 30.70328562 -0.53235982 46 4 C42.57905758 6.28062828 41.31812778 6.21925007 37.3125 6.125 C35.82169922 6.09792969 35.82169922 6.09792969 34.30078125 6.0703125 C33.54152344 6.04710937 32.78226562 6.02390625 32 6 C31.505 5.01 31.505 5.01 31 4 C27.63448877 2.87816292 24.90939768 2.79199032 21.36328125 2.68359375 C19.41518555 2.62075195 19.41518555 2.62075195 17.42773438 2.55664062 C16.05599239 2.51683013 14.68424756 2.47711784 13.3125 2.4375 C11.92902355 2.39429165 10.54555973 2.35067661 9.16210938 2.30664062 C5.77484281 2.20041972 2.38750201 2.09837642 -1 2 C-0.67 1.34 -0.34 0.68 0 0 Z " fill="#CF5A58" transform="translate(304,156)"/>
<path d="M0 0 C0.99 0.495 0.99 0.495 2 1 C3.1577506 4.47325181 3.06866652 7.36067448 3 11 C3.66 11 4.32 11 5 11 C6.823321 17.15370839 7.2361959 22.59646678 7 29 C7.66 29 8.32 29 9 29 C9 33.95 9 38.9 9 44 C7.19134239 40.38268477 6.4730081 37.92981958 5.78125 34.01953125 C5.57113281 32.85486328 5.36101562 31.69019531 5.14453125 30.49023438 C4.93183594 29.27658203 4.71914062 28.06292969 4.5 26.8125 C4.07443813 24.42290563 3.64738441 22.0335764 3.21875 19.64453125 C3.01507813 18.50580566 2.81140625 17.36708008 2.6015625 16.19384766 C2.0764368 13.40582231 1.48648488 10.64946034 0.84375 7.88671875 C0 4 0 4 0 0 Z " fill="#D65350" transform="translate(100,156)"/>
<path d="M0 0 C2.0625 0.4375 2.0625 0.4375 4 1 C3.28972656 1.55429688 2.57945312 2.10859375 1.84765625 2.6796875 C0.92855469 3.40414062 0.00945312 4.12859375 -0.9375 4.875 C-1.85402344 5.59429687 -2.77054688 6.31359375 -3.71484375 7.0546875 C-6.06009485 8.79420836 -6.06009485 8.79420836 -7 11 C-7.66 11 -8.32 11 -9 11 C-9.27070313 11.58007812 -9.54140625 12.16015625 -9.8203125 12.7578125 C-11.00090053 15.0017116 -12.32349311 16.87331494 -13.875 18.875 C-16.39378827 22.17164936 -18.73938698 25.52213381 -21 29 C-21.93423645 25.98968256 -22.04449911 25.13349732 -21 22 C-20.34 21.34 -19.68 20.68 -19 20 C-18.34 19.01 -17.68 18.02 -17 17 C-16.34 17 -15.68 17 -15 17 C-15 16.01 -15 15.02 -15 14 C-14.34 14 -13.68 14 -13 14 C-13 13.01 -13 12.02 -13 11 C-12.01 11 -11.02 11 -10 11 C-10 10.01 -10 9.02 -10 8 C-9.34 8 -8.68 8 -8 8 C-7.67 7.01 -7.34 6.02 -7 5 C-5.35 4.67 -3.7 4.34 -2 4 C-1.67 3.01 -1.34 2.02 -1 1 C-0.67 0.67 -0.34 0.34 0 0 Z " fill="#CD4949" transform="translate(227,229)"/>
<path d="M0 0 C0.66 0.33 1.32 0.66 2 1 C1.34 2.32 0.68 3.64 0 5 C-0.66 5 -1.32 5 -2 5 C-2.67801034 7.90073181 -2.67801034 7.90073181 -3 11 C-2.34 11.66 -1.68 12.32 -1 13 C-1.495 13.845625 -1.99 14.69125 -2.5 15.5625 C-4.14747708 19.33796832 -4.24430947 21.92817548 -4 26 C-3.01 26.33 -2.02 26.66 -1 27 C-1.66 27.33 -2.32 27.66 -3 28 C-2.835 28.763125 -2.67 29.52625 -2.5 30.3125 C-2 33 -2 33 -2 36 C-2.99 35.34 -3.98 34.68 -5 34 C-6.64098188 25.49673028 -6.0891674 16.62942283 -6 8 C-5.34 8 -4.68 8 -4 8 C-3.67 6.35 -3.34 4.7 -3 3 C-2.34 3 -1.68 3 -1 3 C-0.67 2.01 -0.34 1.02 0 0 Z " fill="#D02724" transform="translate(361,409)"/>
<path d="M0 0 C4.95 0.33 9.9 0.66 15 1 C15 1.66 15 2.32 15 3 C19.29 3 23.58 3 28 3 C27.67 3.66 27.34 4.32 27 5 C23.4375692 5.05827558 19.87526181 5.09368885 16.3125 5.125 C14.80139648 5.15013672 14.80139648 5.15013672 13.25976562 5.17578125 C12.28330078 5.18222656 11.30683594 5.18867188 10.30078125 5.1953125 C9.40528564 5.20578613 8.50979004 5.21625977 7.5871582 5.22705078 C4.73831743 4.97703456 2.59105457 4.18016512 0 3 C0 2.01 0 1.02 0 0 Z " fill="#CD2B27" transform="translate(268,350)"/>
<path d="M0 0 C0.33 0 0.66 0 1 0 C1.06058594 1.31355469 1.12117188 2.62710937 1.18359375 3.98046875 C1.26803256 5.71615541 1.35267888 7.45183198 1.4375 9.1875 C1.47681641 10.05181641 1.51613281 10.91613281 1.55664062 11.80664062 C1.78212118 17.97728581 1.78212118 17.97728581 3 24 C3.66 24.33 4.32 24.66 5 25 C5 25.66 5 26.32 5 27 C5.99 27 6.98 27 8 27 C10 31.75 10 31.75 10 34 C10.66 34.33 11.32 34.66 12 35 C9 35 9 35 7.5 33.71484375 C1.18195279 26.22861593 -1.1476123 19.2113511 -1.125 9.375 C-1.12757813 8.24835938 -1.13015625 7.12171875 -1.1328125 5.9609375 C-1 3 -1 3 0 0 Z " fill="#D26161" transform="translate(354,419)"/>
<path d="M0 0 C0.66 0.33 1.32 0.66 2 1 C1.67 1.99 1.34 2.98 1 4 C-0.32 4 -1.64 4 -3 4 C-3.21527344 4.61488281 -3.43054688 5.22976563 -3.65234375 5.86328125 C-6.36706192 10.16748658 -12.30461035 10.80178701 -17 12 C-20.02605745 12.51210203 -22.93228573 12.79548572 -26 13 C-23.67398774 10.67398774 -21.97497706 10.16983906 -18.875 9.125 C-12.91863489 7.02779815 -7.46709782 4.55534428 -2.125 1.1875 C-1.42375 0.795625 -0.7225 0.40375 0 0 Z " fill="#CF5754" transform="translate(345,335)"/>
<path d="M0 0 C0.99 0 1.98 0 3 0 C0.73537197 5.55863244 -4.13026738 9.67432894 -9 13 C-12.3125 13.75 -12.3125 13.75 -15 14 C-15 13.34 -15 12.68 -15 12 C-13.35 12 -11.7 12 -10 12 C-10 10.35 -10 8.7 -10 7 C-9.01 6.67 -8.02 6.34 -7 6 C-7 5.34 -7 4.68 -7 4 C-4.69 3.34 -2.38 2.68 0 2 C0 1.34 0 0.68 0 0 Z " fill="#D7302B" transform="translate(412,446)"/>
<path d="M0 0 C0.66 0 1.32 0 2 0 C1.38334864 5.39392739 0.12077204 10.28395283 -1.5625 15.4375 C-1.79646484 16.16904297 -2.03042969 16.90058594 -2.27148438 17.65429688 C-2.84267222 19.43780179 -3.42063123 21.21913583 -4 23 C-4.33 23 -4.66 23 -5 23 C-5.38999191 15.40237976 -4.60758587 9.15533979 -2 2 C-1.34 2 -0.68 2 0 2 C0 1.34 0 0.68 0 0 Z " fill="#D44D4E" transform="translate(458,313)"/>
<path d="M0 0 C0.66 0 1.32 0 2 0 C1.65371382 10.11155648 -0.32468598 19.30665292 -3 29 C-3.33 29 -3.66 29 -4 29 C-4.02725341 27.2709226 -4.04650987 25.54171824 -4.0625 23.8125 C-4.07410156 22.84957031 -4.08570313 21.88664062 -4.09765625 20.89453125 C-4.00442915 18.13128015 -3.60205014 15.69151827 -3 13 C-2.65596692 10.66822025 -2.32050798 8.33512959 -2 6 C-1.34 6 -0.68 6 0 6 C0 4.02 0 2.04 0 0 Z " fill="#D04744" transform="translate(479,211)"/>
<path d="M0 0 C1.52395433 3.94665096 0.42124681 6.79492018 -0.75 10.75 C-3.03873424 18.74758837 -4.57934194 26.80969105 -6 35 C-6.66 35 -7.32 35 -8 35 C-7.54140754 30.79623579 -6.98263536 26.73886891 -6 22.625 C-4.8686586 17.78724907 -4.39237344 12.94597043 -4 8 C-3.34 8 -2.68 8 -2 8 C-1.855625 6.865625 -1.71125 5.73125 -1.5625 4.5625 C-1 1 -1 1 0 0 Z " fill="#C94143" transform="translate(489,175)"/>
<path d="M0 0 C5.49232569 1.5491175 10.10259081 4.15518143 15 7 C16.010625 7.556875 17.02125 8.11375 18.0625 8.6875 C18.701875 9.120625 19.34125 9.55375 20 10 C20 10.66 20 11.32 20 12 C19.34 12 18.68 12 18 12 C17.67 12.66 17.34 13.32 17 14 C17 13.01 17 12.02 17 11 C16.34 11 15.68 11 15 11 C15 11.66 15 12.32 15 13 C13.68 12.67 12.36 12.34 11 12 C11.33 11.01 11.66 10.02 12 9 C12.66 9.33 13.32 9.66 14 10 C11.77174356 7.77174356 10.34238372 7.30760631 7.375 6.375 C6.55773437 6.11460937 5.74046875 5.85421875 4.8984375 5.5859375 C4.27195312 5.39257812 3.64546875 5.19921875 3 5 C3 4.01 3 3.02 3 2 C2.01 2 1.02 2 0 2 C0 1.34 0 0.68 0 0 Z " fill="#D35654" transform="translate(350,161)"/>
<path d="M0 0 C0.66 0 1.32 0 2 0 C2.12117188 0.61488281 2.24234375 1.22976562 2.3671875 1.86328125 C2.53476563 2.67152344 2.70234375 3.47976562 2.875 4.3125 C3.03742188 5.11300781 3.19984375 5.91351563 3.3671875 6.73828125 C3.94478999 9.25301118 3.94478999 9.25301118 6 12 C6.82375082 15.59454905 7.17790906 17.46627283 6 21 C5.9314505 22.89470816 5.91519628 24.7916834 5.9375 26.6875 C5.94652344 27.68136719 5.95554687 28.67523438 5.96484375 29.69921875 C5.97644531 30.45847656 5.98804687 31.21773438 6 32 C5.67 32 5.34 32 5 32 C4.89042969 31.22398437 4.78085938 30.44796875 4.66796875 29.6484375 C3.60127583 22.38104993 2.24365476 15.24983638 0.5859375 8.09375 C0.05650573 5.29835028 -0.11629295 2.83331909 0 0 Z " fill="#D85B59" transform="translate(115,236)"/>
<path d="M0 0 C10.5 3.5 10.5 3.5 21 7 C21 7.33 21 7.66 21 8 C18.93757383 8.02717692 16.87504297 8.0464758 14.8125 8.0625 C13.66394531 8.07410156 12.51539063 8.08570313 11.33203125 8.09765625 C8.35223456 8.0103234 5.83037764 7.92998122 3 7 C1.1875 3.4375 1.1875 3.4375 0 0 Z " fill="#D54B45" transform="translate(242,341)"/>
<path d="M0 0 C0.33 0 0.66 0 1 0 C1 9.57 1 19.14 1 29 C0.34 29 -0.32 29 -1 29 C-1.03738281 29.73605469 -1.07476562 30.47210938 -1.11328125 31.23046875 C-1.76625659 40.92267135 -1.76625659 40.92267135 -5 45 C-5.33 44.34 -5.66 43.68 -6 43 C-5.34851177 41.32734184 -4.67806629 39.66206147 -4 38 C-3.4102461 35.49425135 -2.88805183 33.03015887 -2.4375 30.5 C-2.30819092 29.77820557 -2.17888184 29.05641113 -2.0456543 28.31274414 C-0.49697564 18.94239607 -0.26867607 9.47778009 0 0 Z " fill="#DA6160" transform="translate(398,236)"/>
<path d="M0 0 C-1.05960938 0.81210938 -1.05960938 0.81210938 -2.140625 1.640625 C-5.2058356 4.16984249 -7.98195775 6.90734745 -10.75 9.75 C-12.47974339 11.52490641 -14.22335987 13.27105491 -16 15 C-16.33 15 -16.66 15 -17 15 C-17 13.35 -17 11.7 -17 10 C-16.34 10 -15.68 10 -15 10 C-15 9.34 -15 8.68 -15 8 C-14.01 8 -13.02 8 -12 8 C-11.9175 7.4225 -11.835 6.845 -11.75 6.25 C-9.69334975 0.08004925 -6.03431956 -0.46417843 0 0 Z " fill="#D5494A" transform="translate(220,147)"/>
<path d="M0 0 C3.24677171 3.24677171 3.12700411 6.55043156 3.1328125 10.9921875 C3.13410156 11.94480469 3.13539063 12.89742187 3.13671875 13.87890625 C3.13285156 14.86761719 3.12898438 15.85632813 3.125 16.875 C3.12886719 17.85597656 3.13273437 18.83695313 3.13671875 19.84765625 C3.13020276 24.6760025 3.01346034 29.25443174 2 34 C1.67 34 1.34 34 1 34 C0.67 22.78 0.34 11.56 0 0 Z " fill="#CE2725" transform="translate(398,229)"/>
<path d="M0 0 C7.42857143 -0.28571429 7.42857143 -0.28571429 11 2 C11.33 1.34 11.66 0.68 12 0 C15.18419421 1.37154686 16.97112596 2.86169983 19.125 5.5625 C21.20903634 8.21025666 21.20903634 8.21025666 24 10 C23.67 10.66 23.34 11.32 23 12 C21.4840625 11.13375 21.4840625 11.13375 19.9375 10.25 C19.29425781 9.88519531 18.65101563 9.52039063 17.98828125 9.14453125 C16.18301756 8.10535196 14.40238229 7.02367806 12.625 5.9375 C8.6405442 3.64121909 4.3891551 2.31376071 0 1 C0 0.67 0 0.34 0 0 Z " fill="#D45756" transform="translate(281,217)"/>
<path d="M0 0 C0.89589844 0.00322266 1.79179687 0.00644531 2.71484375 0.00976562 C4.12056641 0.02233398 4.12056641 0.02233398 5.5546875 0.03515625 C6.49957031 0.03966797 7.44445312 0.04417969 8.41796875 0.04882812 C10.75527137 0.06063268 13.09244811 0.07709866 15.4296875 0.09765625 C15.4296875 0.75765625 15.4296875 1.41765625 15.4296875 2.09765625 C8.8296875 2.42765625 2.2296875 2.75765625 -4.5703125 3.09765625 C-4.9003125 3.75765625 -5.2303125 4.41765625 -5.5703125 5.09765625 C-8.6328125 5.72265625 -8.6328125 5.72265625 -11.5703125 6.09765625 C-5.59450605 -0.03540827 -5.59450605 -0.03540827 0 0 Z " fill="#B8322F" transform="translate(16.5703125,70.90234375)"/>
<path d="M0 0 C3.40208828 3.40208828 3.05433827 7.77178592 3.0625 12.375 C3.041875 13.57125 3.02125 14.7675 3 16 C3.66 16 4.32 16 5 16 C5.33695862 18.72876308 5.66968429 21.45793163 6 24.1875 C6.09539062 24.95642578 6.19078125 25.72535156 6.2890625 26.51757812 C6.75192894 30.36928811 7.12467468 34.11170851 7 38 C1.34048131 28.1934202 -0.2674575 11.06862564 0 0 Z " fill="#D16362" transform="translate(128,304)"/>
<path d="M0 0 C0.33 0 0.66 0 1 0 C1.53736913 14.34974604 1.53736913 14.34974604 -2 21 C-2.69140522 23.77888613 -2.69140522 23.77888613 -3 26 C-3.66 26 -4.32 26 -5 26 C-4.35795894 22.22851072 -3.71071825 18.45793209 -3.0625 14.6875 C-2.88009766 13.61564453 -2.69769531 12.54378906 -2.50976562 11.43945312 C-2.33251953 10.41142578 -2.15527344 9.38339844 -1.97265625 8.32421875 C-1.81031494 7.37635498 -1.64797363 6.42849121 -1.48071289 5.4519043 C-1 3 -1 3 0 0 Z " fill="#D32C2D" transform="translate(490,157)"/>
<path d="M0 0 C1.14030527 3.42091582 0.83657799 5.02687151 0.22265625 8.54296875 C0.03896484 9.61611328 -0.14472656 10.68925781 -0.33398438 11.79492188 C-0.53314453 12.91447266 -0.73230469 14.03402344 -0.9375 15.1875 C-1.13279297 16.31865234 -1.32808594 17.44980469 -1.52929688 18.61523438 C-2.01301447 21.41135801 -2.50350054 24.20612255 -3 27 C-3.66 27 -4.32 27 -5 27 C-5.33 27.66 -5.66 28.32 -6 29 C-5.00066235 19.00662353 -3.93881429 9.30992468 0 0 Z " fill="#D42926" transform="translate(471,248)"/>
<path d="M0 0 C-1.98 0.33 -3.96 0.66 -6 1 C-6 1.66 -6 2.32 -6 3 C-12.05473373 5.57886807 -17.44074057 6.61020794 -24 7 C-22.39640859 3.79281718 -19.54870441 3.583834 -16.25 2.4375 C-15.01765625 2.00308594 -13.7853125 1.56867188 -12.515625 1.12109375 C-4.40034072 -1.46678024 -4.40034072 -1.46678024 0 0 Z " fill="#CD514E" transform="translate(294,160)"/>
<path d="M0 0 C-3.636054 1.97491258 -7.46786523 3.30211185 -11.375 4.625 C-12.02210938 4.85445312 -12.66921875 5.08390625 -13.3359375 5.3203125 C-17.35503375 6.6816193 -20.7647282 7.24913364 -25 7 C-24.67 6.01 -24.34 5.02 -24 4 C-22.22167969 3.29223633 -22.22167969 3.29223633 -19.921875 2.83203125 C-19.09042969 2.66123047 -18.25898438 2.49042969 -17.40234375 2.31445312 C-16.52707031 2.14880859 -15.65179688 1.98316406 -14.75 1.8125 C-13.89019531 1.63525391 -13.03039062 1.45800781 -12.14453125 1.27539062 C-8.0555014 0.45947481 -4.19149302 -0.25114318 0 0 Z " fill="#D13F3B" transform="translate(264,126)"/>
<path d="M0 0 C0.66 0.99 1.32 1.98 2 3 C1.71125 3.680625 1.4225 4.36125 1.125 5.0625 C-0.82040622 10.14217179 -0.71467131 15.85598608 1 21 C1.03954234 23.33299825 1.04401732 25.66708189 1 28 C-3.66108506 21.00837241 -3.32838136 14.0068491 -2 6 C-0.9375 2.3125 -0.9375 2.3125 0 0 Z " fill="#D47477" transform="translate(178,415)"/>
<path d="M0 0 C6.92092756 2.37288945 11.38175999 6.748913 15 13 C15 13.66 15 14.32 15 15 C13.02 14.34 11.04 13.68 9 13 C8.67 11.02 8.34 9.04 8 7 C7.34 7 6.68 7 6 7 C5.67 6.34 5.34 5.68 5 5 C2.47266765 4.34444881 2.47266765 4.34444881 0 4 C0 2.68 0 1.36 0 0 Z " fill="#D15D5B" transform="translate(225,400)"/>
<path d="M0 0 C0.66 0 1.32 0 2 0 C3.6120509 6.76485645 4.26618595 13.04958914 4 20 C4.66 20 5.32 20 6 20 C6 21.65 6 23.3 6 25 C2.34841569 21.80571459 2.02535012 18.23710129 1.3125 13.625 C1.18294922 12.86960937 1.05339844 12.11421875 0.91992188 11.3359375 C0.28959618 7.52063278 -0.16234298 3.88077029 0 0 Z " fill="#CD2B2A" transform="translate(133,327)"/>
<path d="M0 0 C0.66 0.99 1.32 1.98 2 3 C1.38125 3.2475 0.7625 3.495 0.125 3.75 C-2.44249816 5.26029304 -2.71815729 6.36091208 -4 9 C-5.64646685 10.68662458 -7.31183067 12.35511706 -9 14 C-9.33 14.66 -9.66 15.32 -10 16 C-10.66 16 -11.32 16 -12 16 C-12.33 16.99 -12.66 17.98 -13 19 C-13.66 17.68 -14.32 16.36 -15 15 C-14.41992188 14.50371094 -13.83984375 14.00742187 -13.2421875 13.49609375 C-8.38426725 9.27146673 -4.05963107 4.99646901 0 0 Z " fill="#CE5755" transform="translate(375,309)"/>
<path d="M0 0 C0.66 0 1.32 0 2 0 C0.4189413 10.42250537 -1.78040993 20.69937811 -4 31 C-4.33 31 -4.66 31 -5 31 C-5.25243663 25.03109516 -4.30005415 19.64056644 -3.0625 13.8125 C-2.78889648 12.47928711 -2.78889648 12.47928711 -2.50976562 11.11914062 C-1.73994045 7.3931868 -0.94270716 3.68646183 0 0 Z " fill="#DB7171" transform="translate(473,244)"/>
<path d="M0 0 C0.33 1.32 0.66 2.64 1 4 C0.0409375 4.37125 0.0409375 4.37125 -0.9375 4.75 C-3.18741541 5.81562433 -3.18741541 5.81562433 -3.75 8.125 C-3.8325 8.74375 -3.915 9.3625 -4 10 C-4.66 10 -5.32 10 -6 10 C-6 10.66 -6 11.32 -6 12 C-8.375 13.6875 -8.375 13.6875 -11 15 C-11.66 14.67 -12.32 14.34 -13 14 C-11.02108364 11.85393535 -9.04187901 9.70813786 -7.0625 7.5625 C-6.49853516 6.95083984 -5.93457031 6.33917969 -5.35351562 5.70898438 C-4.81533203 5.12568359 -4.27714844 4.54238281 -3.72265625 3.94140625 C-3.22515869 3.40201416 -2.72766113 2.86262207 -2.21508789 2.30688477 C-1.48918929 1.52614632 -0.75381738 0.75381738 0 0 Z " fill="#D35451" transform="translate(229,195)"/>
<path d="M0 0 C1.32 0 2.64 0 4 0 C4 0.66 4 1.32 4 2 C7.3 2.33 10.6 2.66 14 3 C14 3.66 14 4.32 14 5 C16.31 5 18.62 5 21 5 C21 5.33 21 5.66 21 6 C13.65530728 6.33051117 7.6380458 6.38164597 1 3 C0.67 2.01 0.34 1.02 0 0 Z " fill="#C6423E" transform="translate(372,456)"/>
<path d="M0 0 C8.58 0 17.16 0 26 0 C26.33 0.99 26.66 1.98 27 3 C22.71 3 18.42 3 14 3 C14 2.67 14 2.34 14 2 C7.07 1.505 7.07 1.505 0 1 C0 0.67 0 0.34 0 0 Z " fill="#E39595" transform="translate(259,70)"/>
<path d="M0 0 C0.99 0.33 1.98 0.66 3 1 C4.43794854 9.07562173 5.29599372 16.7943963 5 25 C4.67 25 4.34 25 4 25 C3.34 19.72 2.68 14.44 2 9 C1.34 9 0.68 9 0 9 C0 6.03 0 3.06 0 0 Z " fill="#CD3330" transform="translate(127,295)"/>
<path d="M0 0 C1.98 1.32 3.96 2.64 6 4 C5.443125 4.268125 4.88625 4.53625 4.3125 4.8125 C-1.47866617 7.76592711 -1.47866617 7.76592711 -5 13 C-7.125 14.25 -7.125 14.25 -9 15 C-8.34 13.35 -7.68 11.7 -7 10 C-6.34 10 -5.68 10 -5 10 C-4.9175 9.46375 -4.835 8.9275 -4.75 8.375 C-3.73623902 5.1647569 -1.92839451 2.73707608 0 0 Z " fill="#D54F4E" transform="translate(215,210)"/>
<path d="M0 0 C2 0.3125 2 0.3125 4 1 C4.495 1.99 4.495 1.99 5 3 C-7.54 3 -20.08 3 -33 3 C-33 2.67 -33 2.34 -33 2 C-31.55379272 1.96241577 -31.55379272 1.96241577 -30.07836914 1.92407227 C-26.51312158 1.83014694 -22.94807567 1.72989061 -19.38305664 1.62768555 C-17.83785711 1.58428015 -16.29260786 1.54260929 -14.74731445 1.50268555 C-12.53060904 1.44511801 -10.3141552 1.38138576 -8.09765625 1.31640625 C-7.4028566 1.29969376 -6.70805695 1.28298126 -5.99220276 1.26576233 C-2.71237971 1.43497144 -2.71237971 1.43497144 0 0 Z " fill="#CE2724" transform="translate(411,70)"/>
<path d="M0 0 C0.66 0.33 1.32 0.66 2 1 C1.9375 2.75 1.9375 2.75 1 5 C-3.69964834 8.28975384 -7.32241324 9.53652353 -13 10 C-13.33 9.34 -13.66 8.68 -14 8 C-9.33333333 6 -4.66666667 4 0 2 C0 1.34 0 0.68 0 0 Z " fill="#C53638" transform="translate(229,451)"/>
<path d="M0 0 C4.62312441 1.79316039 8.45478546 3.54587455 11 8 C10.01 8 9.02 8 8 8 C8 7.34 8 6.68 8 6 C6.35 6 4.7 6 3 6 C3 5.01 3 4.02 3 3 C1.35 3 -0.3 3 -2 3 C-2 2.34 -2 1.68 -2 1 C-4.97 1 -7.94 1 -11 1 C-6.32541557 -1.33729221 -4.98626758 -1.16346244 0 0 Z " fill="#C9514F" transform="translate(399,398)"/>
<path d="M0 0 C0.556875 0.721875 1.11375 1.44375 1.6875 2.1875 C3.95405207 5.04834845 3.95405207 5.04834845 6.625 7.5625 C8.70981899 9.70218264 9.88811642 11.27083122 11 14 C8.03 13.505 8.03 13.505 5 13 C5 12.01 5 11.02 5 10 C4.360625 9.835 3.72125 9.67 3.0625 9.5 C1 8 1 8 0.51171875 6.0859375 C0.2724022 4.06424845 0.13106972 2.03158061 0 0 Z " fill="#D44748" transform="translate(204,310)"/>
<path d="M0 0 C0.99 0 1.98 0 3 0 C3 0.66 3 1.32 3 2 C4.175625 2.185625 4.175625 2.185625 5.375 2.375 C8 3 8 3 10 5 C10.66 5.33 11.32 5.66 12 6 C11.34 6.66 10.68 7.32 10 8 C6.38715075 7.8429196 4.48212752 7.38062699 1.625 5.125 C0 3 0 3 0 0 Z " fill="#CF3E3E" transform="translate(7,107)"/>
<path d="M0 0 C5.94 1.485 5.94 1.485 12 3 C12 3.33 12 3.66 12 4 C14.64 4.33 17.28 4.66 20 5 C19.67 5.66 19.34 6.32 19 7 C7.07714561 6.38476374 7.07714561 6.38476374 2 3 C1.34 2.01 0.68 1.02 0 0 Z " fill="#CF5450" transform="translate(331,251)"/>
<path d="M0 0 C0.66 0 1.32 0 2 0 C1.51113445 4.28127713 0.38573844 6.09202543 -2.875 8.875 C-3.57367188 9.49117187 -4.27234375 10.10734375 -4.9921875 10.7421875 C-5.65476563 11.15726563 -6.31734375 11.57234375 -7 12 C-7.99 11.67 -8.98 11.34 -10 11 C-10 10.34 -10 9.68 -10 9 C-5.61538462 6 -5.61538462 6 -3 6 C-3 5.34 -3 4.68 -3 4 C-2.34 4 -1.68 4 -1 4 C-0.67 2.68 -0.34 1.36 0 0 Z " fill="#D72623" transform="translate(226,201)"/>
<path d="M0 0 C0 0.99 0 1.98 0 3 C-5.69305433 1.76123355 -11.35370013 0.43723997 -17 -1 C-17 -1.33 -17 -1.66 -17 -2 C-10.32477353 -3.11477625 -6.00914805 -3.26584133 0 0 Z " fill="#D04E4C" transform="translate(324,127)"/>
<path d="M0 0 C0.33 0.99 0.66 1.98 1 3 C-0.65 3 -2.3 3 -4 3 C-4 3.99 -4 4.98 -4 6 C-7.63 6 -11.26 6 -15 6 C-15 5.34 -15 4.68 -15 4 C-10.05 2.68 -5.1 1.36 0 0 Z " fill="#CA2523" transform="translate(401,455)"/>
<path d="M0 0 C-0.33 0.66 -0.66 1.32 -1 2 C-2.14597656 1.97679687 -3.29195313 1.95359375 -4.47265625 1.9296875 C-6.0025976 1.91091521 -7.53254606 1.89271659 -9.0625 1.875 C-9.81466797 1.85824219 -10.56683594 1.84148437 -11.34179688 1.82421875 C-16.29327709 1.78134879 -20.30414451 2.41600625 -25 4 C-24 1 -24 1 -22.0625 -0.1875 C-14.86753911 -2.09636717 -7.28638565 -0.94017879 0 0 Z " fill="#D22824" transform="translate(397,399)"/>
<path d="M0 0 C3.11947167 0.75583837 6.04694295 1.74718792 9 3 C9 3.33 9 3.66 9 4 C7.00045254 4.04254356 4.99958364 4.04080783 3 4 C2.67 3.67 2.34 3.34 2 3 C-0.85877909 2.76298761 -3.69883297 2.57780818 -6.5625 2.4375 C-7.36880859 2.39431641 -8.17511719 2.35113281 -9.00585938 2.30664062 C-11.00368805 2.20024738 -13.0018207 2.09959112 -15 2 C-10.31600026 -1.12266649 -5.48873759 -0.46755913 0 0 Z " fill="#D15D5D" transform="translate(215,396)"/>
<path d="M0 0 C0.66 0 1.32 0 2 0 C0.25267359 6.26480445 -1.97120279 10.88233868 -6 16 C-6.81379984 13.67120172 -7.21266721 12.49693594 -6.22265625 10.18359375 C-5.83980469 9.60738281 -5.45695312 9.03117187 -5.0625 8.4375 C-3.37442512 5.86819282 -3 5.21609341 -3 2 C-2.01 2 -1.02 2 0 2 C0 1.34 0 0.68 0 0 Z " fill="#CE4F4F" transform="translate(451,336)"/>
<path d="M0 0 C0.33 0 0.66 0 1 0 C1.23136637 5.5021816 0.4350346 10.13853778 -1 15.4375 C-1.19078125 16.16904297 -1.3815625 16.90058594 -1.578125 17.65429688 C-2.04450403 19.43819666 -2.52118278 21.21939845 -3 23 C-3.33 23 -3.66 23 -4 23 C-4.22042751 17.48931217 -3.93248267 13.22907076 -2 8 C-1.65596692 5.66822025 -1.32050798 3.33512959 -1 1 C-0.67 0.67 -0.34 0.34 0 0 Z " fill="#D56768" transform="translate(464,287)"/>
<path d="M0 0 C0.33 0 0.66 0 1 0 C0.5954108 5.86654335 -0.16588594 9.31386059 -4 14 C-6.75 16.375 -6.75 16.375 -9 18 C-9 16.68 -9 15.36 -9 14 C-8.01 14 -7.02 14 -6 14 C-6 13.01 -6 12.02 -6 11 C-5.34 11 -4.68 11 -4 11 C-4.0928125 9.824375 -4.0928125 9.824375 -4.1875 8.625 C-4.125625 7.75875 -4.06375 6.8925 -4 6 C-3.01 5.34 -2.02 4.68 -1 4 C-0.27617533 1.94074861 -0.27617533 1.94074861 0 0 Z " fill="#D15A59" transform="translate(367,237)"/>
<path d="M0 0 C6.33393082 -0.34548714 11.10261508 0.70657253 17 3 C16.67 3.66 16.34 4.32 16 5 C10.04492601 4.6083965 5.37180176 3.62875405 0 1 C0 0.67 0 0.34 0 0 Z " fill="#CD514F" transform="translate(163,375)"/>
<path d="M0 0 C0.30808594 0.62390625 0.61617188 1.2478125 0.93359375 1.890625 C1.9495038 3.96778093 1.9495038 3.96778093 3.0625 5.75 C5.79948497 12.31876394 5.11544276 20.02212643 5 27 C4.67 27 4.34 27 4 27 C3.5176843 24.18800846 3.03908565 21.37546366 2.5625 18.5625 C2.36043945 17.3878418 2.36043945 17.3878418 2.15429688 16.18945312 C1.2457613 10.8047179 0.56008252 5.43225668 0 0 Z " fill="#D76B68" transform="translate(121,268)"/>
<path d="M0 0 C2.15962322 3.23943483 2.4693442 5.0751254 3 8.875 C3.45109967 12.08908516 3.87596551 14.71847436 5.1875 17.6953125 C5.455625 18.45585937 5.72375 19.21640625 6 20 C5.34 20.99 4.68 21.98 4 23 C0.50239865 15.54858843 0.30534178 8.08629264 0 0 Z " fill="#D12A27" transform="translate(120,253)"/>
<path d="M0 0 C2.0625 0.4375 2.0625 0.4375 4 1 C3.28972656 1.55429688 2.57945312 2.10859375 1.84765625 2.6796875 C0.92855469 3.40414062 0.00945312 4.12859375 -0.9375 4.875 C-1.85402344 5.59429687 -2.77054688 6.31359375 -3.71484375 7.0546875 C-6.06009485 8.79420836 -6.06009485 8.79420836 -7 11 C-7.66 11 -8.32 11 -9 11 C-9.33 11.66 -9.66 12.32 -10 13 C-10 11.35 -10 9.7 -10 8 C-9.34 8 -8.68 8 -8 8 C-7.67 7.01 -7.34 6.02 -7 5 C-5.35 4.67 -3.7 4.34 -2 4 C-1.67 3.01 -1.34 2.02 -1 1 C-0.67 0.67 -0.34 0.34 0 0 Z " fill="#CE544C" transform="translate(227,229)"/>
<path d="M0 0 C4.27077656 -0.05794812 8.54145236 -0.09357874 12.8125 -0.125 C14.02744141 -0.14175781 15.24238281 -0.15851563 16.49414062 -0.17578125 C17.65751953 -0.18222656 18.82089844 -0.18867188 20.01953125 -0.1953125 C21.62985229 -0.21102295 21.62985229 -0.21102295 23.27270508 -0.22705078 C26 0 26 0 29 2 C28.3702124 1.99476318 27.7404248 1.98952637 27.09155273 1.98413086 C24.20687885 1.96319862 21.32222102 1.9502885 18.4375 1.9375 C17.44685547 1.92912109 16.45621094 1.92074219 15.43554688 1.91210938 C10.17451301 1.89463086 5.18235335 2.07691602 0 3 C0 2.01 0 1.02 0 0 Z " fill="#C8504C" transform="translate(252,215)"/>
<path d="M0 0 C5.78883995 0.51686071 11.352323 1.65344738 17 3 C13.57905758 5.28062828 12.31812778 5.21925007 8.3125 5.125 C6.82169922 5.09792969 6.82169922 5.09792969 5.30078125 5.0703125 C4.54152344 5.04710937 3.78226562 5.02390625 3 5 C2.67 4.34 2.34 3.68 2 3 C1.01 2.34 0.02 1.68 -1 1 C-0.67 0.67 -0.34 0.34 0 0 Z " fill="#CE4B45" transform="translate(333,157)"/>
<path d="M0 0 C0.66 0.66 1.32 1.32 2 2 C1.56525701 3.9061808 1.11686724 5.81085389 0.58203125 7.69140625 C-0.35569136 11.4108295 -0.66452735 15.18620566 -1 19 C-1.99 19 -2.98 19 -4 19 C-3.59060025 12.23784552 -2.43046191 6.32837252 0 0 Z " fill="#CA2B28" transform="translate(195,254)"/>
<path d="M0 0 C0 0.33 0 0.66 0 1 C-3.3 1.33 -6.6 1.66 -10 2 C-10 2.66 -10 3.32 -10 4 C-14.29 3.67 -18.58 3.34 -23 3 C-23 2.67 -23 2.34 -23 2 C-21.87980469 1.86722656 -20.75960938 1.73445313 -19.60546875 1.59765625 C-18.13279271 1.41943431 -16.66013753 1.24103989 -15.1875 1.0625 C-14.44951172 0.97548828 -13.71152344 0.88847656 -12.95117188 0.79882812 C-1.81135574 -0.56214489 -1.81135574 -0.56214489 0 0 Z " fill="#CC5E5D" transform="translate(320,349)"/>
<path d="M0 0 C0.33 0.66 0.66 1.32 1 2 C-2.12621626 5.39417765 -4.56541027 7.6062718 -9 9 C-9.33 8.01 -9.66 7.02 -10 6 C-6.98112756 2.51668565 -4.43090471 1.20842856 0 0 Z " fill="#D03935" transform="translate(252,178)"/>
<path d="M0 0 C4.95 0.33 9.9 0.66 15 1 C15 1.66 15 2.32 15 3 C10.05 3 5.1 3 0 3 C0 2.01 0 1.02 0 0 Z " fill="#CE5857" transform="translate(268,350)"/>
<path d="M0 0 C1.13417711 3.40253132 0.89332301 3.83501048 -0.375 7 C-2.27670464 12.27093477 -2.6983459 17.435002 -3 23 C-3.33 23 -3.66 23 -4 23 C-4.738041 5.92255125 -4.738041 5.92255125 0 0 Z " fill="#D55B57" transform="translate(4,77)"/>
<path d="M0 0 C0.33 0.99 0.66 1.98 1 3 C0.01 4.485 0.01 4.485 -1 6 C-1 6.99 -1 7.98 -1 9 C-1.99 8.67 -2.98 8.34 -4 8 C-4.6875 5.9375 -4.6875 5.9375 -5 4 C-5.66 4 -6.32 4 -7 4 C-6.67 3.01 -6.34 2.02 -6 1 C-3.90006779 0.25486277 -2.22568901 0 0 0 Z " fill="#D82928" transform="translate(190,444)"/>
<path d="M0 0 C0.99 0 1.98 0 3 0 C2.44854729 5.23880078 1.57077907 9.97350697 0 15 C-2 13 -2 13 -2.01171875 10.9765625 C-1.85123047 9.81253906 -1.85123047 9.81253906 -1.6875 8.625 C-1.58824219 7.85414063 -1.48898438 7.08328125 -1.38671875 6.2890625 C-1.02612969 4.15466662 -0.55839834 2.09041429 0 0 Z " fill="#D35051" transform="translate(177,201)"/>
<path d="M0 0 C0.99 0 1.98 0 3 0 C2.40984815 5.50808397 1.43336231 10.64878069 0 16 C-0.33 16 -0.66 16 -1 16 C-1.02712153 14.083412 -1.04645097 12.1667127 -1.0625 10.25 C-1.07410156 9.18265625 -1.08570313 8.1153125 -1.09765625 7.015625 C-1.01510087 4.46631499 -0.74617558 2.42066409 0 0 Z " fill="#D64F4F" transform="translate(492,151)"/>
<path d="M0 0 C0.33 0.66 0.66 1.32 1 2 C0.01 2.66 -0.98 3.32 -2 4 C-3.20450304 6.55183404 -3.20450304 6.55183404 -4 9 C-6.64 9.33 -9.28 9.66 -12 10 C-8.29909479 6.0747975 -4.45040344 3.05419844 0 0 Z " fill="#D15A5B" transform="translate(359,325)"/>
<path d="M0 0 C0.99 0.33 1.98 0.66 3 1 C2.67 1.99 2.34 2.98 2 4 C0.66666667 4.33333333 -0.66666667 4.66666667 -2 5 C-2.33 5.99 -2.66 6.98 -3 8 C-5.0625 9.6875 -5.0625 9.6875 -7 11 C-7 6.27350947 -6.10874559 5.3752095 -3 2 C-2.01 1.34 -1.02 0.68 0 0 Z " fill="#CE504E" transform="translate(188,403)"/>
<path d="M0 0 C-1.33934244 2.67868487 -2.51692397 2.74954078 -5.3125 3.6875 C-6.09238281 3.95949219 -6.87226563 4.23148437 -7.67578125 4.51171875 C-10.18274511 5.03839183 -11.60132343 4.8178554 -14 4 C-9.09075703 0.07260562 -6.26079448 -0.43177893 0 0 Z " fill="#D05454" transform="translate(416,375)"/>
<path d="M0 0 C0 0.66 0 1.32 0 2 C-0.63808594 2.12117188 -1.27617187 2.24234375 -1.93359375 2.3671875 C-3.17302734 2.61855469 -3.17302734 2.61855469 -4.4375 2.875 C-5.26121094 3.03742188 -6.08492188 3.19984375 -6.93359375 3.3671875 C-7.61550781 3.57601563 -8.29742187 3.78484375 -9 4 C-9.33 4.66 -9.66 5.32 -10 6 C-12.64860427 6.59355614 -15.29197322 6.74209269 -18 7 C-18 6.34 -18 5.68 -18 5 C-17.236875 4.87625 -16.47375 4.7525 -15.6875 4.625 C-12.79732864 4.11897208 -12.79732864 4.11897208 -10 2 C-8.02734375 1.3671875 -8.02734375 1.3671875 -5.9375 0.875 C-5.24527344 0.70742188 -4.55304688 0.53984375 -3.83984375 0.3671875 C-2 0 -2 0 0 0 Z " fill="#CE2925" transform="translate(332,345)"/>
<path d="M0 0 C0.33 0 0.66 0 1 0 C1.33 5.28 1.66 10.56 2 16 C1.01 16 0.02 16 -1 16 C-1.02701408 13.89590361 -1.04640223 11.79170822 -1.0625 9.6875 C-1.07410156 8.51574219 -1.08570313 7.34398437 -1.09765625 6.13671875 C-1 3 -1 3 0 0 Z " fill="#C55150" transform="translate(354,419)"/>
<path d="M0 0 C0.33 0 0.66 0 1 0 C0.54593375 7.95398808 -0.87111461 15.32797907 -3 23 C-3.33 23 -3.66 23 -4 23 C-3.88485851 20.95775363 -3.75742674 18.91619841 -3.625 16.875 C-3.55539062 15.73804688 -3.48578125 14.60109375 -3.4140625 13.4296875 C-3.00430203 10.03563381 -2.17660839 7.19890407 -1 4 C-0.65023242 2.67088318 -0.30903983 1.33917261 0 0 Z " fill="#D22624" transform="translate(484,187)"/>
<path d="M0 0 C0.66 0.33 1.32 0.66 2 1 C1.75881648 4.25597758 0.47775788 5.7276304 -1.875 7.8125 C-2.90625 8.534375 -3.9375 9.25625 -5 10 C-5.99 9.67 -6.98 9.34 -8 9 C-8 8.34 -8 7.68 -8 7 C-6.68 7 -5.36 7 -4 7 C-3.67 6.01 -3.34 5.02 -3 4 C-2.34 4 -1.68 4 -1 4 C-0.67 2.68 -0.34 1.36 0 0 Z " fill="#D05A59" transform="translate(433,360)"/>
<path d="M0 0 C0.66 0 1.32 0 2 0 C4.27141454 5.39460953 4.20413361 10.26157749 4 16 C2.06757715 12.65479742 1.4536147 9.55232518 0.875 5.75 C0.70742187 4.67234375 0.53984375 3.5946875 0.3671875 2.484375 C0.24601562 1.66453125 0.12484375 0.8446875 0 0 Z " fill="#CE5352" transform="translate(96,135)"/>
<path d="M0 0 C2 1.375 2 1.375 4 3 C4 3.66 4 4.32 4 5 C4.639375 5.268125 5.27875 5.53625 5.9375 5.8125 C8 7 8 7 9 10 C8.01 10.495 8.01 10.495 7 11 C7 10.34 7 9.68 7 9 C6.401875 8.95875 5.80375 8.9175 5.1875 8.875 C3 8 3 8 1.25 5.0625 C0 2 0 2 0 0 Z " fill="#D75455" transform="translate(486,80)"/>
<path d="M0 0 C0.66 0 1.32 0 2 0 C2.8125 1.625 2.8125 1.625 3 4 C1.53181864 6.24609835 -0.15852858 8.02378677 -2 10 C-3.32 9.67 -4.64 9.34 -6 9 C-6 8.34 -6 7.68 -6 7 C-4.68 7.33 -3.36 7.66 -2 8 C-2 6.68 -2 5.36 -2 4 C-1.34 4 -0.68 4 0 4 C0 2.68 0 1.36 0 0 Z " fill="#D65556" transform="translate(441,350)"/>
<path d="M0 0 C0.33 0 0.66 0 1 0 C1.06058594 0.67546875 1.12117187 1.3509375 1.18359375 2.046875 C1.26738281 2.93890625 1.35117187 3.8309375 1.4375 4.75 C1.55931641 6.07257813 1.55931641 6.07257813 1.68359375 7.421875 C1.96238465 9.69350452 2.38790577 11.79851823 3 14 C2.34 14 1.68 14 1 14 C1 13.34 1 12.68 1 12 C0.34 12 -0.32 12 -1 12 C-1.02687279 10.18757948 -1.04633715 8.37504767 -1.0625 6.5625 C-1.07410156 5.55316406 -1.08570312 4.54382813 -1.09765625 3.50390625 C-1 1 -1 1 0 0 Z " fill="#C72523" transform="translate(2,88)"/>
<path d="M0 0 C0.99 0 1.98 0 3 0 C3 1.32 3 2.64 3 4 C3.66 4 4.32 4 5 4 C5.103125 4.639375 5.20625 5.27875 5.3125 5.9375 C5.539375 6.618125 5.76625 7.29875 6 8 C6.99 8.33 7.98 8.66 9 9 C9 9.66 9 10.32 9 11 C4.70073737 9.40768051 2.64994267 6.60686641 0 3 C0 2.01 0 1.02 0 0 Z " fill="#CE5858" transform="translate(180,444)"/>
<path d="M0 0 C0.66 0 1.32 0 2 0 C1.67 1.32 1.34 2.64 1 4 C-4.50016964 5.30267176 -9.47032059 4.71033431 -15 4 C-15 3.67 -15 3.34 -15 3 C-10.38 3 -5.76 3 -1 3 C-0.67 2.01 -0.34 1.02 0 0 Z " fill="#C73634" transform="translate(356,252)"/>
<path d="M0 0 C1.98 0.66 3.96 1.32 6 2 C6 2.66 6 3.32 6 4 C5.34 4 4.68 4 4 4 C3.67 4.66 3.34 5.32 3 6 C3 5.01 3 4.02 3 3 C2.34 3 1.68 3 1 3 C1 3.66 1 4.32 1 5 C-0.32 4.67 -1.64 4.34 -3 4 C-2.67 3.01 -2.34 2.02 -2 1 C-1.34 1.33 -0.68 1.66 0 2 C0 1.34 0 0.68 0 0 Z " fill="#D74C46" transform="translate(364,169)"/>
<path d="M0 0 C0.99 0 1.98 0 3 0 C1.44499019 3.81684226 -1.03595495 6.19195732 -4 9 C-4.66 7.68 -5.32 6.36 -6 5 C-4.68 5 -3.36 5 -2 5 C-2 4.01 -2 3.02 -2 2 C-1.34 2 -0.68 2 0 2 C0 1.34 0 0.68 0 0 Z " fill="#CF5B5D" transform="translate(412,446)"/>
<path d="M0 0 C0.60546875 1.80078125 0.60546875 1.80078125 1 4 C-1.96296296 9.59670782 -1.96296296 9.59670782 -5.25 10.875 C-5.8275 10.91625 -6.405 10.9575 -7 11 C-5.22054913 6.95579349 -2.60470327 3.53921513 0 0 Z " fill="#D05C5C" transform="translate(383,298)"/>
<path d="M0 0 C3.40766547 1.19728787 5.61275326 2.28721961 8 5 C8.556875 5.556875 9.11375 6.11375 9.6875 6.6875 C10.3371875 7.3371875 10.3371875 7.3371875 11 8 C8.03 7.505 8.03 7.505 5 7 C5 6.34 5 5.68 5 5 C3.68 4.67 2.36 4.34 1 4 C0.67 2.68 0.34 1.36 0 0 Z " fill="#D75658" transform="translate(215,324)"/>
<path d="M0 0 C2.91227269 3.28804981 4.49701212 5.59885603 5 10 C3.68 9.67 2.36 9.34 1 9 C0.67 6.03 0.34 3.06 0 0 Z " fill="#D75654" transform="translate(495,90)"/>
<path d="M0 0 C1.32 0 2.64 0 4 0 C2.73058503 3.91402949 1.48832306 5.79072873 -2 8 C-2 6.35 -2 4.7 -2 3 C-1.34 3 -0.68 3 0 3 C0 2.01 0 1.02 0 0 Z " fill="#D35E5D" transform="translate(235,444)"/>
<path d="M0 0 C2.3125 -0.25 2.3125 -0.25 5 0 C6.8125 1.8125 6.8125 1.8125 8 4 C8 4.99 8 5.98 8 7 C4.2047869 5.50902342 2.38957269 3.24299151 0 0 Z " fill="#CB494A" transform="translate(146,363)"/>
<path d="M0 0 C0.66 0 1.32 0 2 0 C2 0.66 2 1.32 2 2 C4.97 2.495 4.97 2.495 8 3 C7.625 4.9375 7.625 4.9375 7 7 C6.01 7.495 6.01 7.495 5 8 C4.16382818 6.8562364 3.33113541 5.70992861 2.5 4.5625 C2.0359375 3.92441406 1.571875 3.28632813 1.09375 2.62890625 C0 1 0 1 0 0 Z " fill="#D1494C" transform="translate(140,355)"/>
<path d="M0 0 C6.75 -0.125 6.75 -0.125 9 1 C9 1.99 9 2.98 9 4 C4.545 3.01 4.545 3.01 0 2 C0 1.34 0 0.68 0 0 Z " fill="#CC312F" transform="translate(259,349)"/>
<path d="M0 0 C1.69433918 3.0469629 2.49467112 5.82821466 3.125 9.25 C3.29257813 10.14203125 3.46015625 11.0340625 3.6328125 11.953125 C3.75398437 12.62859375 3.87515625 13.3040625 4 14 C3.01 14.495 3.01 14.495 2 15 C0.2520497 9.75614911 -0.19392201 5.52677733 0 0 Z " fill="#D05D5B" transform="translate(176,260)"/>
<path d="M0 0 C-2 3 -2 3 -4.1640625 3.51171875 C-4.97617188 3.56972656 -5.78828125 3.62773437 -6.625 3.6875 C-7.85089844 3.78611328 -7.85089844 3.78611328 -9.1015625 3.88671875 C-9.72804687 3.92410156 -10.35453125 3.96148437 -11 4 C-7.66477677 0.47086844 -4.87838929 -1.62612976 0 0 Z " fill="#CF534F" transform="translate(200,399)"/>
<path d="M0 0 C0.66 0 1.32 0 2 0 C1.34 3.96 0.68 7.92 0 12 C-0.66 12 -1.32 12 -2 12 C-1 3.42857143 -1 3.42857143 0 0 Z " fill="#DD6667" transform="translate(473,244)"/>
<path d="M0 0 C0.66 0 1.32 0 2 0 C1.34 3.96 0.68 7.92 0 12 C-0.66 12 -1.32 12 -2 12 C-1 3.42857143 -1 3.42857143 0 0 Z " fill="#D96767" transform="translate(483,198)"/>
<path d="M0 0 C0.99 0 1.98 0 3 0 C2.51855059 4.81449408 2.1991413 7.60171741 0 12 C0 8.04 0 4.08 0 0 Z " fill="#D95555" transform="translate(497,128)"/>
<path d="M0 0 C3.46941546 0.45822468 6.67395049 0.89131683 10 2 C9.67 2.99 9.34 3.98 9 5 C7.68 4.67 6.36 4.34 5 4 C5 3.34 5 2.68 5 2 C3.35 2 1.7 2 0 2 C0 1.34 0 0.68 0 0 Z " fill="#C13537" transform="translate(469,73)"/>
<path d="M0 0 C1.32 0 2.64 0 4 0 C3.54917531 1.46067199 3.08906463 2.91848032 2.625 4.375 C2.36976563 5.18710937 2.11453125 5.99921875 1.8515625 6.8359375 C1 9 1 9 -1 11 C-0.67 7.37 -0.34 3.74 0 0 Z " fill="#CF5F5E" transform="translate(201,259)"/>
<path d="M0 0 C3.70129644 0.38961015 5.61879622 1.11749016 8 4 C4.98968256 4.93423645 4.13349732 5.04449911 1 4 C1 3.34 1 2.68 1 2 C0.34 1.67 -0.32 1.34 -1 1 C-0.67 0.67 -0.34 0.34 0 0 Z " fill="#D42824" transform="translate(233,339)"/>
<path d="M0 0 C0.33 0 0.66 0 1 0 C1 2.97 1 5.94 1 9 C0.01 9.33 -0.98 9.66 -2 10 C-2.17942163 6.05272412 -2.09350689 3.4019487 0 0 Z " fill="#CC4544" transform="translate(199,238)"/>
<path d="M0 0 C2.64 0.33 5.28 0.66 8 1 C8 2.32 8 3.64 8 5 C8.66 5.33 9.32 5.66 10 6 C7 6 7 6 5 4.125 C4.34 3.42375 3.68 2.7225 3 2 C2.01 1.34 1.02 0.68 0 0 Z " fill="#DA6768" transform="translate(381,203)"/>
<path d="M0 0 C0 3.5747073 -0.55352838 4.46916729 -3 7 C-5.6875 7.75 -5.6875 7.75 -8 8 C-5.58443874 4.80800833 -3.31996462 2.25283313 0 0 Z " fill="#D35A5A" transform="translate(238,187)"/>
<path d="M0 0 C-2.88628401 1.57554035 -5.53342384 2.46276373 -8.75 3.125 C-9.54921875 3.29257813 -10.3484375 3.46015625 -11.171875 3.6328125 C-11.77515625 3.75398437 -12.3784375 3.87515625 -13 4 C-13.33 3.34 -13.66 2.68 -14 2 C-4.58997722 -0.29612756 -4.58997722 -0.29612756 0 0 Z " fill="#D96669" transform="translate(264,126)"/>
<path d="M0 0 C-0.185625 0.78375 -0.37125 1.5675 -0.5625 2.375 C-1.25962266 4.97089775 -1.25962266 4.97089775 0 7 C0.039992 8.99960012 0.04346799 11.00047242 0 13 C-0.33 13 -0.66 13 -1 13 C-1.20496094 12.37351563 -1.40992187 11.74703125 -1.62109375 11.1015625 C-1.89050781 10.28429687 -2.15992187 9.46703125 -2.4375 8.625 C-2.83775391 7.40683594 -2.83775391 7.40683594 -3.24609375 6.1640625 C-3.95179729 3.98968201 -3.95179729 3.98968201 -5 2 C-2 0 -2 0 0 0 Z " fill="#D95F5A" transform="translate(96,122)"/>
<path d="M0 0 C4 1.33333333 8 2.66666667 12 4 C12 4.33 12 4.66 12 5 C10.3739713 4.93999894 8.74898451 4.8512115 7.125 4.75 C5.76761719 4.68039062 5.76761719 4.68039062 4.3828125 4.609375 C2 4 2 4 0.6796875 1.953125 C0.45539063 1.30859375 0.23109375 0.6640625 0 0 Z " fill="#D76664" transform="translate(242,341)"/>
<path d="M0 0 C0.66 0 1.32 0 2 0 C1.25 7.625 1.25 7.625 -1 11 C-1.0270043 9.54176788 -1.04639787 8.08339325 -1.0625 6.625 C-1.07410156 5.81289063 -1.08570313 5.00078125 -1.09765625 4.1640625 C-1 2 -1 2 0 0 Z " fill="#DA6764" transform="translate(466,275)"/>
<path d="M0 0 C0.99 0 1.98 0 3 0 C3 1.32 3 2.64 3 4 C3.66 4.33 4.32 4.66 5 5 C4.34 6.32 3.68 7.64 3 9 C0 3.375 0 3.375 0 0 Z " fill="#D64847" transform="translate(390,209)"/>
<path d="M0 0 C2 0.3125 2 0.3125 4 1 C4.33 1.66 4.66 2.32 5 3 C0.71 3 -3.58 3 -8 3 C-8 2.67 -8 2.34 -8 2 C-6.865625 1.855625 -5.73125 1.71125 -4.5625 1.5625 C-1.19222799 1.38828522 -1.19222799 1.38828522 0 0 Z " fill="#CA4743" transform="translate(411,70)"/>
<path d="M0 0 C0.33 0 0.66 0 1 0 C2.33583899 4.84241633 3.25328119 8.93437617 3 14 C2.34 14 1.68 14 1 14 C0.67 9.38 0.34 4.76 0 0 Z " fill="#D62A26" transform="translate(132,313)"/>
<path d="M0 0 C1 2 1 2 0.0625 5.125 C-0.288125 6.07375 -0.63875 7.0225 -1 8 C-1.99 8 -2.98 8 -4 8 C-4 7.01 -4 6.02 -4 5 C-3.34 4.67 -2.68 4.34 -2 4 C-0.86649466 1.98330173 -0.86649466 1.98330173 0 0 Z " fill="#D03938" transform="translate(389,290)"/>
<path d="M0 0 C0.99 0 1.98 0 3 0 C2.38722388 2.96175123 1.74627478 4.38058783 0 7 C-0.66 7 -1.32 7 -2 7 C-2 5.68 -2 4.36 -2 3 C-1.34 3 -0.68 3 0 3 C0 2.01 0 1.02 0 0 Z " fill="#D14040" transform="translate(214,240)"/>
<path d="M0 0 C0.66 0.33 1.32 0.66 2 1 C1.8125 2.875 1.8125 2.875 1 5 C-1.5625 6.25 -1.5625 6.25 -4 7 C-3.6875 5.0625 -3.6875 5.0625 -3 3 C-2.01 2.67 -1.02 2.34 0 2 C0 1.34 0 0.68 0 0 Z " fill="#CE5452" transform="translate(229,451)"/>
<path d="M0 0 C0.99 0.495 0.99 0.495 2 1 C3.1577506 4.47325181 3.06866652 7.36067448 3 11 C0.43383368 7.15075052 0.44902324 4.5650696 0 0 Z " fill="#D1615D" transform="translate(176,432)"/>
<path d="M0 0 C3.36591866 1.44253657 5.51047079 3.33264727 8 6 C5.125 5.8125 5.125 5.8125 2 5 C0.625 2.4375 0.625 2.4375 0 0 Z " fill="#C62C2B" transform="translate(311,231)"/>
<path d="M0 0 C0.66 0 1.32 0 2 0 C2.66 2.64 3.32 5.28 4 8 C3.01 8.495 3.01 8.495 2 9 C0.50178941 5.62902617 0 3.79557881 0 0 Z " fill="#D72525" transform="translate(394,214)"/>
<path d="M0 0 C0.66 0.99 1.32 1.98 2 3 C1.25 6.625 1.25 6.625 0 10 C-0.99 10.495 -0.99 10.495 -2 11 C-1.85957123 9.35369672 -1.71250671 7.70795821 -1.5625 6.0625 C-1.48128906 5.14597656 -1.40007812 4.22945312 -1.31640625 3.28515625 C-1 1 -1 1 0 0 Z " fill="#D85050" transform="translate(182,189)"/>
<path d="M0 0 C1.32 0.33 2.64 0.66 4 1 C2.02579865 3.52259061 1.03254358 3.9929808 -2.1875 4.6875 C-3.5796875 4.8421875 -3.5796875 4.8421875 -5 5 C-5 4.34 -5 3.68 -5 3 C-3.35 3 -1.7 3 0 3 C0 2.01 0 1.02 0 0 Z " fill="#D05C5B" transform="translate(402,455)"/>
<path d="M0 0 C0.99 0.495 0.99 0.495 2 1 C2 2.32 2 3.64 2 5 C2.66 5 3.32 5 4 5 C4 6.65 4 8.3 4 10 C1.2027092 7.93243723 0.97307727 6.85559629 0.3125 3.3125 C0.209375 2.219375 0.10625 1.12625 0 0 Z " fill="#CF5E61" transform="translate(135,342)"/>
<path d="M0 0 C3.3 1.65 6.6 3.3 10 5 C5.82412255 6.39195915 3.86525224 4.82323219 0 3 C0 2.01 0 1.02 0 0 Z " fill="#D26663" transform="translate(231,335)"/>
<path d="M0 0 C1.65 0 3.3 0 5 0 C5.33 1.98 5.66 3.96 6 6 C3.97945196 4.35830472 1.97956942 2.69088222 0 1 C0 0.67 0 0.34 0 0 Z " fill="#D85A5D" transform="translate(323,244)"/>
<path d="M0 0 C0.99 0 1.98 0 3 0 C3 0.99 3 1.98 3 3 C2.34 3 1.68 3 1 3 C1 3.66 1 4.32 1 5 C0.34 5 -0.32 5 -1 5 C-1.33 5.66 -1.66 6.32 -2 7 C-2.125 4.625 -2.125 4.625 -2 2 C-1.34 1.34 -0.68 0.68 0 0 Z " fill="#D32623" transform="translate(242,185)"/>
<path d="M0 0 C1.60080151 4.00200378 0.29279692 7.04556236 -1 11 C-1.33 11 -1.66 11 -2 11 C-2.25 3.375 -2.25 3.375 0 0 Z " fill="#DC736E" transform="translate(489,175)"/>
<path d="M0 0 C0.66 0.33 1.32 0.66 2 1 C1.19152271 2.16945792 0.37810888 3.33550461 -0.4375 4.5 C-0.88996094 5.1496875 -1.34242188 5.799375 -1.80859375 6.46875 C-2.20175781 6.9740625 -2.59492188 7.479375 -3 8 C-3.33 8 -3.66 8 -4 8 C-4 6.35 -4 4.7 -4 3 C-3.34 3 -2.68 3 -2 3 C-2 2.34 -2 1.68 -2 1 C-1.34 0.67 -0.68 0.34 0 0 Z " fill="#D56363" transform="translate(201,162)"/>
<path d="M0 0 C1.32 0 2.64 0 4 0 C4 0.66 4 1.32 4 2 C4.99 2 5.98 2 7 2 C6.67 3.32 6.34 4.64 6 6 C6 5.34 6 4.68 6 4 C4.02 3.34 2.04 2.68 0 2 C0 1.34 0 0.68 0 0 Z " fill="#CD2928" transform="translate(346,161)"/>
<path d="M0 0 C1.98 0 3.96 0 6 0 C4.1875 2 4.1875 2 2 4 C1.01 4 0.02 4 -1 4 C-0.67 2.68 -0.34 1.36 0 0 Z " fill="#D34F4F" transform="translate(222,141)"/>
<path d="M0 0 C0.66 0 1.32 0 2 0 C2 0.66 2 1.32 2 2 C3.32 2.66 4.64 3.32 6 4 C5.01 4.99 4.02 5.98 3 7 C-0 2.25 -0 2.25 0 0 Z " fill="#D25958" transform="translate(1,100)"/>
<path d="M0 0 C-0.33 1.32 -0.66 2.64 -1 4 C-2.98 4.33 -4.96 4.66 -7 5 C-2.25 0 -2.25 0 0 0 Z " fill="#C14B4B" transform="translate(12,72)"/>
<path d="M0 0 C0.66 0 1.32 0 2 0 C2.33 2.64 2.66 5.28 3 8 C2.01 7.67 1.02 7.34 0 7 C0 4.69 0 2.38 0 0 Z " fill="#C32320" transform="translate(238,415)"/>
<path d="M0 0 C0.66 0.33 1.32 0.66 2 1 C1.45276317 4.37462715 0.9451 6.08235 -1 9 C-1.09765625 2.84765625 -1.09765625 2.84765625 -1 1 C-0.67 0.67 -0.34 0.34 0 0 Z " fill="#C92A2B" transform="translate(180,413)"/>
<path d="M0 0 C1.65 1.32 3.3 2.64 5 4 C4.34 5.32 3.68 6.64 3 8 C2.67 6.35 2.34 4.7 2 3 C1.01 2.67 0.02 2.34 -1 2 C-0.67 1.34 -0.34 0.68 0 0 Z " fill="#CF6262" transform="translate(410,406)"/>
<path d="M0 0 C0.33 0 0.66 0 1 0 C1 2.31 1 4.62 1 7 C0.34 7 -0.32 7 -1 7 C-1 7.66 -1 8.32 -1 9 C-1.66 9 -2.32 9 -3 9 C-2.30058404 5.85262818 -1.23921302 2.97411124 0 0 Z " fill="#CF3134" transform="translate(459,306)"/>
<path d="M0 0 C2.31 0 4.62 0 7 0 C7 0.66 7 1.32 7 2 C4.69 2.33 2.38 2.66 0 3 C0 2.01 0 1.02 0 0 Z " fill="#C85B57" transform="translate(252,215)"/>
<path d="M0 0 C0.99 0 1.98 0 3 0 C1.92598892 2.91517292 1.22189824 4.77810176 -1 7 C-1.04254356 5.00045254 -1.04080783 2.99958364 -1 1 C-0.67 0.67 -0.34 0.34 0 0 Z " fill="#D34647" transform="translate(191,173)"/>
<path d="M0 0 C2.475 0.495 2.475 0.495 5 1 C5.33 2.32 5.66 3.64 6 5 C2.83884224 3.63016497 2.0072908 3.0109362 0 0 Z " fill="#DA605E" transform="translate(353,145)"/>
</svg>
